<?xml version="1.0" encoding="UTF-8"?>
<!DOCTYPE svg PUBLIC "-//W3C//DTD SVG 1.1//EN" "http://www.w3.org/Graphics/SVG/1.1/DTD/svg11.dtd">
<!-- Creator: CorelDRAW -->
<svg xmlns="http://www.w3.org/2000/svg" xml:space="preserve" width="3.33333in" height="3.33333in" version="1.1" style="shape-rendering:geometricPrecision; text-rendering:geometricPrecision; image-rendering:optimizeQuality; fill-rule:evenodd; clip-rule:evenodd"
viewBox="0 0 3333.33 3333.33"
 xmlns:xlink="http://www.w3.org/1999/xlink"
 xmlns:xodm="http://www.corel.com/coreldraw/odm/2003">
 <defs>
  <style type="text/css">
   <![CDATA[
    .fil2 {fill:#EC7C7B}
    .fil1 {fill:#FEFAFA}
    .fil0 {fill:white}
   ]]>
  </style>
 </defs>
 <g id="Layer_x0020_1">
  <metadata id="CorelCorpID_0Corel-Layer"/>
  <path class="fil0" d="M1725.57 2746.09c-0.13,13.48 4.6,7.32 -9.16,9.16 2.19,-11.92 -3.35,-8.84 9.16,-9.16zm184.43 -50.7l20.23 -0.79c10.97,15.07 16.64,59.75 -10.45,61.39 -27.75,1.69 -25.5,-43.68 -9.78,-60.61zm-105.22 36.27c-3.24,-49.78 37.68,-49.18 39.84,-13.55 3.17,52.18 -37.69,46.72 -39.84,13.55zm-147.14 22.36c-4.03,-12.53 -5.9,-44.88 -0.98,-59.08 69.36,-13.7 67.73,75.35 0.98,59.08zm-72.97 -25.69c-2.43,-46.95 55.07,-47.44 59.28,-9.94 5.74,51.12 -57.26,48.98 -59.28,9.94zm-38 27.07c-20.19,-6.55 -3.35,-19.81 -20.55,-33.19 -1.26,14.11 3,26 -6.11,33.26 -8.56,-11.13 -6.14,-50.38 -1.69,-62.04 28.29,-1.12 12.78,17.39 28.35,33.72 10.95,-20.63 -0.38,-37.8 26.67,-31.83 4.42,12.43 6.85,51.73 -3.33,60.15 -4.49,-5.7 -1.46,1.16 -3.55,-7.79 -1.1,-4.72 -0.8,-4.69 -1.16,-9.46 -0.69,-9.17 2.18,-9.61 -1.96,-18.21 -4.78,6.15 -4.63,7.85 -7.33,17.31 -4.21,14.7 -0.33,10.89 -9.33,18.08zm307.22 -44.54c3.34,-21.89 19.3,-20.05 36.51,-10.74 2.75,34.01 -8.8,20.63 -16.59,41.56 9.63,5.93 11.11,0.19 17.21,10l-17.37 4.15c-6.81,0.19 -15.05,-0.28 -22.07,-0.28 4.69,-27.42 31.28,-28.56 25.9,-46.65 -0.79,-0.5 -2.04,-2.19 -2.46,-1.34l-9.53 -0.65c-10.69,2.48 5.3,2.09 -11.6,3.95zm-92.91 -0.28c-4.15,-26.98 29.3,-16.66 33.72,-10.27 8.98,20.95 -8.62,29.35 -16.85,41.74 14.22,7.77 11.37,-4.13 19.75,9.63 -3.44,2.14 -1.42,2.18 -7.79,3.43l-32.33 -0.78c4.01,-23.69 29.67,-29.82 26.54,-45.6 -4.78,-7.59 -13.87,1.9 -23.05,1.87zm-352.34 -590.27c20.63,-7.07 491.05,-1.48 598.05,-2.55l29.21 1.4c9.45,3.3 0.96,-1.91 7.03,4.24 4.07,7.25 6.56,490.25 1.28,529.13 -19.69,10.24 -273.73,3.65 -317.54,3.65 -45.13,0 -298.54,5.8 -318.03,-3.15 -5.57,-15.03 -5.41,-518.4 0,-532.73zm800.82 564.82l0.02 -486.79c0,-11.72 -3.88,-61.42 3.81,-67.52 27.49,-10.06 456.8,60.64 506.24,74.4 -5.19,25.55 -80.48,129.31 -96.41,149.54l-40.89 49.07c-6.15,7.66 -7.95,11.37 -15.15,18.3 -53.69,51.67 -66.67,70.41 -126.99,119.61 -22.04,17.97 -45.35,34.64 -71.14,52.31 -36.61,25.09 -114.21,76.22 -159.5,91.08zm-1479.24 -489.91c35.96,-10.19 83.34,-15.59 121.09,-21.96l255.25 -35.67c33.93,-3.89 102.09,-15.12 133.98,-12.84l1.47 555.09c-17.84,3.85 -64.93,-28.56 -81.79,-38.35 -133.4,-77.47 -240.59,-171.42 -334.06,-292.66 -16.04,-20.8 -94.16,-130.46 -95.95,-153.6zm675.91 -616.88c0,-16.83 0.17,-16.67 17.21,-16.67l603.33 0c11.21,0 8.56,-0.76 16.67,3.88 4.76,18.52 4.3,488.93 -0.22,509.24 -23.02,5.12 -533.14,3.74 -616.76,2.43 -19.47,-0.3 -20.24,-0.87 -20.24,-18.89l0 -480zm314.99 -398.89c45.21,-8.72 85.61,24.74 92.65,62.41 9.11,48.75 -25.34,84.78 -64.95,92.18 -102.27,19.11 -134.27,-134.04 -27.7,-154.58zm662.09 359.31l2.63 -6.9c-56.3,-36.24 -108.96,-77.37 -165.46,-113.87 -53.36,-34.47 -480.7,-337.7 -493.84,-337.72 -12.66,-0.02 -370.09,253.02 -412.11,282.5 -19.43,13.63 -238.19,160.8 -244.42,172.22 18.26,8.28 124.41,0.17 153.58,2.5 10.22,0.81 13.19,1.33 16.35,5.72 3.18,6.76 6.16,520.81 0.07,541.31 -7.97,4.51 -237.83,29.11 -270.07,33.69 -34.76,4.93 -244.68,42.07 -259.93,39.8 -15.85,-14.57 -46.51,-101.97 -55.19,-127.91 -51.85,-154.97 -73.61,-308.12 -57.93,-475.09 77.67,-826.85 984,-1296.03 1706.98,-873.94 414.06,241.73 640.45,739.84 531.58,1222.46 -14.35,63.61 -64.67,227.55 -96.14,263.7 -4.74,2.53 -232.11,-38.15 -259.4,-42.06l-268.81 -34.6c-6.41,-32.76 -4.03,-537.53 0.87,-550.27 15.76,-5.63 145.8,-3.65 171.24,-1.55zm-1816.53 132.91c0,175.69 42.8,324.09 103.57,466.38 63.41,148.46 196.44,317.26 306.86,406.43 91.51,73.91 146.63,112.28 260.3,166.51 125.96,60.09 300.58,107.34 459.26,107.34 208.26,0 342.9,-26.85 522.03,-107.92 371.44,-168.1 669.3,-576.88 669.3,-1035.41 0,-177.18 -34.85,-354.96 -105.42,-499.25 -104.99,-214.68 -214.84,-338.74 -389.35,-467.34 -168.19,-123.95 -420.76,-210.07 -643.22,-210.07 -204.29,0 -337.9,31.16 -510.07,106.63 -127.82,56.03 -237.98,139.32 -334.2,235.76l-53.92 56.05c-6.41,6.58 -8.68,11.15 -14.95,18.44 -22.48,26.11 -42.54,52.01 -62.54,80.69 -136.52,195.7 -207.65,422.4 -207.65,675.76z"/>
  <path class="fil0" d="M549.46 1157.32c150.37,-52.66 93.82,-60 208.44,-214.45 5.84,-7.87 12.37,-16.56 18.76,-24.56 30.93,-38.73 44.49,-45.08 44.08,-83.22 -0.23,-21.67 -2.22,-65.28 4.04,-81.87 42.2,-8.46 96.25,6.98 119.99,-10.12 4.65,-3.35 5.99,-5.63 10.51,-9.44 4.81,-4.07 8.3,-6.27 13.15,-10.3 63.3,-52.62 138.09,-101.18 213.93,-139.22 47.2,-23.67 35.7,-78.09 67.65,-109.55 36.78,2.24 80.96,44.86 120.02,33.72 72.55,-20.7 120.91,-33.47 196.48,-43.41 19.56,-2.57 56.25,-4.11 72.34,-7.96 24.49,-5.85 64.11,-64.47 87.82,-73.54 15.7,8.76 29.41,27.18 42.77,38.81 11.96,10.4 27.29,32.79 47.62,35.56 111.3,15.14 166.19,15.97 279.13,54.35 53.03,18.02 84.72,-27.1 127.15,-27.46 29.45,29.96 22.3,87.62 62.78,107.43 69.35,33.94 147.88,89.18 207.12,136.38 17.46,13.91 25.34,29.52 56.57,29.45 26.13,-0.06 60.74,-1.87 84.72,2.73 4.52,21.44 2.88,59.69 3.2,84.54 0.4,31.22 14.17,41.52 27.65,57.76 40.04,48.24 114.67,155.83 138.23,215.12 16.01,40.28 73.2,45.56 109.27,66.71 -3.45,34.45 -43.8,85.57 -34.57,118.44 40.17,143.21 31.35,126.34 50.38,265.89 2.44,17.85 13.97,24.04 34.68,45.83 52.07,54.8 48.32,33.71 -0.61,89.45 -11.33,12.91 -31.37,26.52 -34.28,48.07 -13.41,99.37 -19.32,180.63 -55.37,278.94 -19.88,54.21 29.45,86.11 27.09,130.26 -48.08,31.46 -87.97,22.96 -108.61,61.63 -38.82,72.72 -85.31,142.08 -136.39,203.5 -34.11,41.02 -23.65,50.81 -26.34,121.67 -1.12,29.63 -10.71,20.03 -89.03,20.95 -31.58,0.37 -40.86,14 -57.64,27.79 -62.15,51.09 -137.69,99.84 -212.81,137.07 -27.32,13.54 -24.76,18.31 -37.96,48.81 -9.26,21.4 -18.67,42.48 -27.36,62.17 -35.41,0.75 -89.18,-44.46 -122.66,-35.79 -77.2,19.98 -114.9,32.79 -197.43,43.35 -14.52,1.86 -61.13,4.82 -71.39,8.24 -17.45,5.82 -65.89,62.78 -85.88,76.6 -23.12,-6.9 -66.25,-70.79 -91.52,-77.58 -6.92,-1.86 -107.99,-12.79 -148.69,-21.3 -48.28,-10.09 -88.53,-22.07 -134.56,-35.83 -36.91,-11.04 -90.56,30.09 -124.07,33.82 -10.45,-10.11 -21.4,-42.51 -28.03,-58.23 -9.9,-23.45 -12.15,-41.08 -33.01,-53.63 -43.46,-26.15 -59.23,-31.86 -108.58,-64.76 -36.58,-24.38 -67.85,-47.7 -99.81,-73.62 -25.48,-20.67 -16.48,-24.22 -61.68,-24.38 -111.09,-0.38 -78.37,6.83 -82.5,-90.66 -1.72,-40.59 -38.95,-72.43 -65.33,-108.71 -56.1,-77.15 -57.28,-93.51 -98.15,-161.81 -18.11,-30.27 -67.54,-46.14 -111.92,-64.61 1.28,-34 44.81,-92.93 37.5,-120.79 -11.76,-44.84 -24.77,-84.93 -33.36,-133.67 -4.2,-23.81 -15.29,-133.23 -23.2,-143.37 -5.43,-6.96 -13.83,-12.7 -20.13,-19.72 -7.6,-8.47 -13.61,-14.11 -20.92,-22.52 -43.21,-49.74 -43.28,-28.24 13.87,-85.38 13.64,-13.64 30.67,-23.59 33.49,-49.47 5.59,-51.23 10.57,-96.66 20.51,-146.45 8.93,-44.71 21.93,-90.17 35.57,-131.34 11.98,-36.14 -29.94,-89.48 -32.69,-126.33zm227.25 -449.54c-6.21,9.33 -3.38,28.93 -3.36,43.89 0.09,88.58 9.74,72.69 -26.4,116.96 -43.54,53.33 -86.17,115.61 -119.59,177.02 -35.91,65.98 -26.84,34.02 -139.83,86.87 -1.42,29.87 49.25,105.52 44.24,130.74 -4.52,22.74 -27.7,89.46 -38.95,144.49 -6.32,30.92 -17.07,139.09 -24.18,155.65 -5.67,13.22 -33.05,31.75 -45.44,44.76 -8.94,9.38 -38.52,39.98 -42,50.16 9.88,16.26 62.11,60 83.89,84.99 10.61,12.17 10.57,54.57 12.93,73.88 9.23,75.6 45.82,214.7 45.84,214.89 1.91,19.84 -45.51,97.36 -47.06,127.22 25.92,10.78 87.15,33.12 111.19,47.8 16.87,10.31 18.75,28.08 30.53,49.39 35.89,64.94 81,135.25 128.37,191.6 28.57,34 18.88,26.65 19.8,93.57 1.07,78.03 -20.7,62.79 113.33,62.79 23.45,0 33.88,15.33 47.07,26.8 44.96,39.07 128.29,93.68 182.41,124.26 16.97,9.59 37.9,17.09 45.57,31.18 16.63,30.54 27.44,79.71 44.11,108.04 35.63,-1.74 103.13,-48.17 132.35,-41.46 20.8,4.78 45.18,15.81 68.64,21.56 23.17,5.67 48.52,11.81 72.87,16.85 24.51,5.08 50.54,9.77 76.59,13.42 100.99,14.14 64.43,-9.51 126.92,53.36 56.43,56.78 39.93,52.15 91.09,0.8 71.87,-72.14 35.83,-33.93 195.97,-64.32 49.89,-9.46 91.93,-23.92 138.52,-34.81 31.57,-7.37 98.7,43.41 127.89,41.15 24.65,-35.35 30.94,-101.4 63.87,-119.23 20.6,-11.15 39.3,-18.95 59.21,-30.67 66.57,-39.18 102.85,-64.31 164,-112.62 23.17,-18.3 22.48,-28.45 62.89,-27.76 113.34,1.94 94.46,20.65 95.55,-86.02 0.45,-44.01 2.73,-42.57 24.45,-66.76 57.85,-64.41 99.85,-142.24 143.35,-216.54 19.74,-33.72 90.81,-32.48 118.85,-60.74 -4.9,-35.56 -49.18,-95.88 -39.17,-129.48 25.52,-85.63 37.55,-122.15 50.36,-212.7 13.57,-95.98 -7.81,-72.7 50.13,-130.29 58.53,-58.17 53,-41.98 4.13,-91.09 -70.44,-70.78 -33.94,-40.99 -63.08,-193.88 -27,-141.7 -54.03,-119.23 -16.15,-203.46 6.7,-14.9 23.36,-47.07 23.2,-59.96 -22.01,-18.86 -84.16,-33.79 -106.86,-49.92 -9.6,-6.82 -46.2,-80.1 -57.46,-99.11 -36.4,-61.42 -71.2,-108.97 -115.54,-160.96 -19.14,-22.45 -6.58,-81.2 -10.06,-136.46 -25.13,-3.8 -60.84,-1.14 -88.34,-2.39 -48.24,-2.19 -35.96,-0.35 -65.17,-24.31 -80.28,-65.83 -127.3,-94.04 -219.15,-144.32 -30.64,-16.77 -37.33,-92.39 -62.32,-120.93 -16.28,-0.15 -79.81,28.89 -97.15,36.27 -30.78,13.1 -44.84,-2.33 -102.35,-16.67 -36.38,-9.07 -71.63,-17.69 -109.52,-23.88 -146.44,-23.95 -95.3,12.29 -188.41,-81.65 -30.53,-30.8 -22.5,-27.52 -71.07,20.75 -30,29.82 -24.26,45.18 -84.34,50.08 -35.42,2.89 -81.37,11.04 -117.37,18.15 -37.31,7.37 -72.72,17.12 -106.31,27.11 -45.67,13.59 -61.22,-4.56 -99.83,-20.5 -61.59,-25.43 -45.35,-40.5 -90.34,70.24 -10.34,25.46 -6.73,27.28 -31.44,38.73 -61.04,28.27 -151.68,90.38 -204.62,131.95 -7.26,5.7 -11.33,9.67 -18.3,15.08 -5.8,4.5 -13.37,13.19 -17.92,15.47 -21.17,10.63 -106.98,-4.86 -131,4.96z"/>
  <path class="fil0" d="M1598.44 810.11c85.72,-33.17 104.83,50.59 14.75,47.38 -17.32,-0.62 -13.08,-1.19 -15.2,-18.21 -1.43,-11.47 -2.81,-19.81 0.45,-29.17zm-10.8 -97.35c22.54,-5.59 41.9,-6.52 60.21,0.69 11.88,37.82 -14.55,43.78 -46.41,44.29 -15.46,0.25 -7.65,2.89 -12.07,-4.83 -4.71,-8.22 -4.09,-31.21 -1.73,-40.15zm-85.75 -42.4c-3.28,12.19 19.89,220.76 23.96,249.53 37.72,4.96 173.81,-16.28 194.4,-27.99 22.32,-12.7 37.19,-37.63 32.59,-73.17 -5.5,-42.53 -41.43,-42.96 -53.39,-54.93 45.8,-17.53 41.66,-111.61 -36.13,-111.61 -25.07,0 -147.97,11.3 -161.44,18.15z"/>
  <path class="fil0" d="M2234.59 864.31c34.13,-8.26 65.46,26.57 56.72,61.73 -6.61,26.6 -36.22,66.22 -58.6,72.32 -39.21,10.69 -72.32,-25.76 -61.52,-65.26 8.65,-31.63 33.3,-61.51 63.41,-68.79zm-33.85 -66.78c-58.69,14.48 -119.55,87.41 -104.06,164.33 13.62,67.64 151.81,179.22 243.8,43.61 89.32,-131.67 -61.11,-227.35 -139.74,-207.95z"/>
  <path class="fil0" d="M1183.07 867.48c15.32,-7.95 49.95,-29.47 61.74,-3.7 12.04,26.32 -17.41,47.91 -36.18,51.22 -7.6,-8.15 -24.07,-30.33 -25.56,-47.52zm-96.18 0.85c-0.05,15.83 52.75,91.28 64.07,109.11 79.55,125.26 64,111.95 104.16,85.96 11.85,-7.67 24.7,-12.81 30.36,-22.11 -5.86,-22.69 -41.08,-54.67 -42.66,-79.63 25.66,-25.74 58.99,-31.71 74.68,-69.24 18.43,-44.09 -12.49,-83.42 -34.47,-100.5 -44.08,-34.27 -104.83,17.7 -152.17,47.28 -13.98,8.74 -32.6,19.05 -43.97,29.13z"/>
  <path class="fil0" d="M1910.04 721.67l70.32 25.26c1.27,32.91 -57.17,161.59 -51.34,181.96 10.8,8.41 59.5,24.02 72.41,20.75l56.96 -175.84c20.38,1.39 65.41,20.42 74.56,18.68 0.69,-0.53 1.59,-2.39 1.84,-1.85 0.25,0.54 1.42,-1.46 1.74,-1.94 7.24,-10.65 15.57,-39.73 16.1,-53.46 -16.88,-8.82 -210.38,-70.85 -225.97,-70.18 -6.24,9.73 -16.74,45.09 -16.62,56.62z"/>
  <path class="fil0" d="M1783.33 904.68c11.11,5.32 62.75,11.47 73.74,7.83 5.84,-9.59 32.68,-232.46 29.06,-250.3 -12.17,-2.91 -62.95,-9.79 -76.2,-7.28 -5.3,20.39 -30.86,237.8 -26.59,249.75z"/>
  <path class="fil0" d="M1423.71 964.15c12.41,-0.59 63.96,-20.28 71.77,-26.52l-84.11 -236.36c-15.54,1.1 -25.82,6.48 -39.98,11.83 -7.75,2.93 -12.52,4.22 -19.97,6.81 -22.96,7.96 -16.26,6.29 13.73,89.99l58.56 154.25z"/>
  <path class="fil0" d="M1719.85 1200.33c-75.17,19.62 -49.29,129.5 29.06,113.41 73.89,-15.17 50.88,-134.28 -29.06,-113.41z"/>
  <path class="fil0" d="M1714.04 2344.15c34.92,-13.52 66.65,8.87 75.91,34.42 11.96,33.03 -8.68,64.48 -32.67,73.63 -72.76,27.74 -120.54,-78.11 -43.24,-108.05zm4.61 -22.48c-50.41,12.02 -73.01,50.93 -63.24,94.83 22.86,102.73 183.26,64.69 157.33,-37.46 -8.98,-35.41 -47.86,-68.4 -94.09,-57.37z"/>
  <path class="fil0" d="M1727.04 1770.48c34.18,-5.54 60.94,16.37 66.17,44.96 6.52,35.64 -18.28,65.5 -46.74,69.8 -80.39,12.15 -98.16,-102 -19.43,-114.77zm-9.63 -19.63c-108.03,27.36 -65.06,180.41 40.93,152.27 35.05,-9.31 68.45,-47.59 55.66,-95.68 -9.78,-36.75 -49.85,-68.43 -96.59,-56.59z"/>
  <path class="fil1" d="M1775.7 989.99c-4.11,8.94 -4.92,30.43 0.96,41.64 11.13,-4.53 2.91,2.15 9.09,-13.61l7.57 14.81c9.61,-4.21 7.51,-0.45 9.96,-16.23 0.51,0.86 0.95,1.29 1.2,2.76l8.85 13.4c5.24,-9.69 5.35,-32.48 1.12,-42.79 -13.43,-1.7 -10.52,0.3 -16.34,13.22l-4.96 8.94c-2.58,-13.74 -2.65,-23.61 -17.44,-22.15z"/>
  <path class="fil1" d="M1649.67 1021.67c2.96,-5.35 -4.48,-5.44 7.14,-6.23 8.96,-0.61 7.96,4.79 8.86,6.23 -15.15,10.64 -15.43,0.37 -16,0zm-8.87 9.2c40.76,12.99 37.39,-9.82 31.03,-37.69 -32.34,-17.67 -37.53,10.74 -31.03,37.69z"/>
  <path class="fil0" d="M1626.29 2705.85l-22.72 -1.26c-7.64,12.76 -11.7,39.43 9.89,41.01 23.54,1.72 21.05,-26.39 12.83,-39.75z"/>
  <path class="fil0" d="M1668.22 2743.44c33.2,11.18 37,-43.22 1.78,-38.4 -7.26,11.88 -5.81,24.75 -1.78,38.4z"/>
  <path class="fil1" d="M1737.14 1015l1.36 17.49c12.18,-6.27 5.97,0.97 9.99,-15.67l15.92 -5.16 -15.54 -10c9.41,-5.29 10.24,-2.88 17.62,-5.73 -4.76,-8.41 6.55,-2.93 -7.06,-6.94 -1.42,-0.42 -13.91,-0.24 -15.37,0.24 -9.14,2.97 -8.13,13.43 -6.91,25.77z"/>
  <path class="fil1" d="M1682.84 991.02c-2.87,10.52 2.4,3.22 10.4,30.81 4.43,15.29 -0.36,5.81 6.76,10.75l2.42 -5c5.31,-16.46 13.59,-27.85 12.53,-37.54 -7.8,1.32 -8.5,4.88 -14.94,11.48 -10.91,-5.92 -7.07,-13.05 -17.16,-10.5z"/>
  <path class="fil1" d="M1818.93 2745.44c13.07,-0.6 13.93,2.4 13.95,-17 0.01,-8.98 -0.86,-16.81 -2.62,-23.65l-12.99 2.82 1.67 37.82z"/>
  <path class="fil1" d="M1911.13 2715l0 13.33c0,15.8 -1,15.21 13.1,17.57l2.3 -39.35 -13.18 -1.46c-1.71,4.8 -2.22,4.67 -2.22,9.9z"/>
  <path class="fil2" d="M2383.2 1538.75c10.86,-1.59 8.94,-2.13 2.63,-6.9l-2.63 6.9z"/>
 </g>
</svg>
