<?xml version="1.0" encoding="UTF-8"?>
<svg id="Layer_1" data-name="Layer 1" xmlns="http://www.w3.org/2000/svg" viewBox="0 0 759.51 941.76">
  <defs>
    <style>
      .cls-1 {
        fill: #e43a32;
      }
    </style>
  </defs>
  <path class="cls-1" d="M380.69,14.99c0-.47,0-.94-.01-1.4.78-2.64-.3-5.4.28-8.06.92,0,.97.66,1.2,1.14,3.25,6.79,6.29,13.69,9.79,20.33,6.64,12.61,12.65,25.54,18.98,38.31,6.7,13.53,13.1,27.22,19.55,40.88,4.28,9.06,8.23,18.3,12.68,27.27,3.74,7.54,7,15.31,10.7,22.88,4.28,8.76,7.94,17.85,11.9,26.78,4.06,9.16,8.17,18.3,12.23,27.47,1.49,3.38,2.81,6.84,4.36,10.19.73,1.58,1.61,3.43,3.89,2.26,2.62-1.34,5.4-1.51,8.24-1.43,2.96.08,3.8-.7,4.53-3.67,2.12-8.67,4.34-17.3,6.41-25.98,1.9-7.97,4.75-15.72,5.31-24.01.05-.71.28-1.42.53-2.1,2.42-6.6,7.72-9.4,13.88-10.39,8.42-1.34,15.84,1.55,21.71,7.79,5.3,5.63,7.52,12.4,4.75,20.26-.87,2.46-2.88,3.99-4.26,6.03-5.26,7.84-10.49,15.69-15.58,23.64-1.48,2.32-3.52,4.33-4.21,7.16-.1.08-.17.19-.21.32-2.38,2.03-3.77,4.84-5.46,7.41-2.21,3.34-2.13,3.37.65,6.22,6.22,6.4,7.18,14.14,4.71,22.38-.72,2.42-.23,3.46,1.58,4.43,6.86,3.68,13.5,7.74,20.02,12.04,9.88,6.51,19.47,13.45,28.49,21.22,1.39,1.2,2.81,1.79,4.67,1.77,12.45-.11,24.9-.09,37.36-.17,1.51,0,2.34.56,2.07,2.11-.42,2.36.06,4.68.05,7.02-.04,10.62.04,21.24.02,31.85,0,1.73.55,3.07,1.61,4.39,2.51,3.09,4.94,6.25,7.29,9.47,2.19,3.01,4.21,6.14,6.82,8.79.02.12.08.21.17.29,1.93,4.42,4.93,8.16,7.4,12.23,3.72,6.15,7.5,12.25,10.69,18.73.72,1.46,1.17,3.81,3.66,3.38,1.22-.21,2.46-.5,3.62-.96,5.13-2.02,9.95-.75,14.67,1.41,2.62,1.2,4.61,3.28,6.48,5.48.94,1.11,2.17,2.04,3.43.91,1.22-1.09,2.66-1.7,3.98-2.52,6.59-4.12,13.3-8.06,19.89-12.18,6.4-4,13.04-7.59,18.98-12.36,2.31-1.86,4.95-2.98,7.97-3.1,9.37-.37,17.32,7.35,20.14,15.41,1.58,4.51.98,9.15.95,13.73-.05,8.63-7.49,15.31-14.57,14.96-1.25-.06-2.49.05-3.73.31-8.81,1.8-17.64,3.54-26.46,5.31-5.91,1.18-11.81,2.38-17.71,3.58-1.63.33-2.82,1.13-2.7,3.06.62,9.67-3.08,16.86-11.64,20.98-2.32,1.12-2.5,2.48-1.87,4.6,2.81,9.43,5.24,18.96,7.07,28.64,1.94,10.23,3.91,20.47,4.51,30.91.12,2.08,1.12,3.61,2.51,5.03,8.77,8.97,17.47,18.02,26.28,26.96,1.35,1.37,1.06,2.14-.1,3.35-8.8,9.1-17.55,18.25-26.32,27.38-1.19,1.24-1.95,2.62-2.03,4.47-.14,2.98-.39,5.97-.81,8.93-.91,6.32-1.98,12.61-2.95,18.92-1.11,7.28-2.96,14.38-4.63,21.53-1.11,4.78-2.64,9.47-4.03,14.18-.52,1.75-.18,2.85,1.6,3.63,2.07.91,4.16,1.91,5.9,3.43,5.27,4.6,7.65,10.56,7.33,17.61-.11,2.26.52,3.53,2.73,3.95,4.76.89,9.41,2.3,14.1,3.51,6.36,1.65,12.75,3.14,19.15,4.65,4.79,1.13,9.43,3.11,14.4,3.2,3.62.07,6.54,1.43,9.01,3.98,5.38,5.57,5.95,12.69,4.68,19.71-1.79,9.9-7.23,16.84-17.18,19.58-4.13,1.14-7.67.34-10.89-1.86-3.31-2.27-6.42-4.88-9.74-7.15-10.76-7.33-21.57-14.59-32.33-21.92-2.84-1.93-3.18-1.91-5.4.58-3.28,3.68-7.2,6.03-12.16,6.55-3.97.42-7.77.22-11.42-1.55-1.73-.84-2.93-.42-3.82,1.4-1.13,2.3-2.38,4.53-3.63,6.76-7.94,14.11-16.62,27.71-26.65,40.36-1.29,1.63-2.89,3.06-2.86,5.62.14,12.89.08,25.78.22,38.67.02,2.14-.69,2.57-2.58,2.56-12.38-.06-24.76-.02-37.14-.02-1.04,0-2.03.11-2.86.86-8.63,7.76-17.98,14.5-27.45,21.09-7.79,5.43-15.94,10.2-24.16,14.87-3.6,2.04-3.74,2.03-2.5,6.14.16.54.41,1.04.59,1.58,1.26,3.89,1.18,7.84-.02,11.68-1.26,4.05-3.49,7.54-6.72,10.26-1.44,1.21-1.78,2.31-.47,3.97,1.21,1.53,2.1,3.34,3.11,5.04,4.12,6.99,8.17,14.02,12.35,20.97,3.61,5.99,6.7,12.32,11.28,17.69,1.95,2.29,3.08,5.12,3.13,8.38.05,3.6-.92,6.77-2.66,9.85-4.38,7.73-11.03,11.77-19.42,12.85-4.33.56-8.36-.52-12.37-2.6-4.59-2.38-7.41-5.87-7.91-10.94-.32-3.32-.78-6.56-1.46-9.8-1.75-8.28-3.63-16.54-5.07-24.88-.97-5.63-2.92-11.05-3.18-16.82-.1-2.2-1.3-2.76-3.61-2.64-7.62.39-13.96-2.22-18.31-8.99-1.04-1.61-1.82-3.39-2.7-5.11-.76-1.5-1.97-2.34-3.45-1.51-2.1,1.19-4.45,1.49-6.66,2.14-7.93,2.33-15.95,4.36-24.07,5.85-6.99,1.28-13.97,2.85-21.11,3.07-4.48.14-8.08,1.61-10.97,5.39-2.36,3.09-5.23,5.79-8.03,8.49-5.32,5.13-10.03,10.89-15.35,16.04-1.56,1.51-2.29,1.95-3.88.26-4.74-5.05-9.65-9.93-14.42-14.95-3.34-3.51-6.92-6.78-9.99-10.57-1.82-2.25-4.01-3.5-6.95-3.94-4.95-.73-9.95-.94-14.91-1.75-6.48-1.06-12.99-2.1-19.35-3.64-8.1-1.97-16.29-3.71-24.13-6.74-2.13-.83-3.69-.09-4.59,2.04-3.89,9.27-10.79,13.38-20.44,12.88-1.61-.08-2.72.86-3.09,2.44-1.5,6.42-2.9,12.87-4.38,19.29-1.27,5.49-2.85,10.92-3.84,16.46-.84,4.69-3.15,9.16-2.88,13.93.41,7.35-6.86,13.94-13.29,14.91-6.05.91-11.92.19-17.43-2.98-5.79-3.33-9.62-8.24-11.23-14.78-.82-3.34-.85-6.85.84-10.18,2.02-3.97,5.18-7.04,7.47-10.84,7.19-11.93,14.82-23.57,22.3-35.32.94-1.47.96-2.69-.61-3.67-1.02-.64-1.83-1.53-2.55-2.48-5.12-6.73-6.27-14.09-3.29-22.11.76-2.05.75-3.63-1.64-4.68-5.6-2.46-10.56-6.16-15.81-9.28-4.7-2.79-9.09-6.2-13.58-9.37-6.6-4.68-13.02-9.55-19.21-14.78-1.09-.92-2.26-1.29-3.67-1.29-11.67.06-23.35.07-35.02.1-.7,0-1.44-.04-2.1.15-2.16.65-2.59-.43-2.58-2.38.04-12.89,0-25.78.01-38.67,0-1.17-.13-2.29-.94-3.16-3.27-3.56-5.83-7.69-8.75-11.53-5.27-6.93-10.1-14.2-14.6-21.66-3.95-6.56-7.79-13.23-11.15-20.15-.84-1.72-2.06-2.27-3.86-1.3-2.26,1.21-4.75,1.65-7.26,1.69-6.12.11-11.47-1.81-15.71-6.6-1.08-1.22-2.28-2.72-4.19-1.52-3.37,2.12-6.67,4.36-10.03,6.5-5.66,3.62-11.36,7.17-17,10.82-4.73,3.05-9.93,5.58-13.92,9.54-7.7,7.65-19.13,3.88-24.47-2.23-3.14-3.6-5.29-7.78-6.45-12.62-1.76-7.36-.39-13.9,3.97-19.78,1.6-2.16,3.68-3.74,6.59-4.19,1.94-.3,3.97.12,5.77-.57,4.09-1.59,8.47-1.81,12.64-3.11,3.79-1.19,7.8-1.61,11.67-2.57,6.44-1.59,12.92-3.01,19.45-4.15,4.18-.73,4.53-1.11,4.4-5.4-.19-6.33,1.9-11.71,6.32-16.06,2.15-2.12,4.91-3.38,7.51-4.79,1.23-.67,1.45-1.63,1.03-2.54-.78-1.71-.94-3.56-1.54-5.29-2.12-6.16-3.27-12.59-4.8-18.92-1.18-4.9-1.85-9.93-2.71-14.9-1.24-7.17-2.2-14.39-2.96-21.63-.14-1.3-.56-2.28-1.44-3.18-3.51-3.59-6.98-7.21-10.47-10.82-5.53-5.72-11.05-11.45-16.6-17.14-.99-1.02-1.82-2.15-.46-3.24,1.02-.82,1.69-1.88,2.56-2.78,8.17-8.46,16.32-16.94,24.49-25.4,1.21-1.26,1.81-2.67,1.88-4.5.21-6.38,1.13-12.7,2.1-19,1.21-7.9,2.75-15.74,4.58-23.53,1.44-6.13,3.01-12.22,4.78-18.24.76-2.58.25-3.63-1.86-4.76-3.33-1.78-6.47-3.96-8.57-7.29-2.61-4.13-4.05-8.65-3.56-13.67.23-2.37-.82-3.52-3.01-4.1-11.95-3.2-23.84-6.63-35.83-9.67-2.94-.74-5.76-2.28-8.85-2.22-10.13.21-15.41-8.02-16.16-15.82-1.12-11.52,3.07-20.77,13.24-26.34,4.61-2.53,9.46-3.45,14.56-.62,2.57,1.42,4.31,3.67,6.55,5.37,4.01,3.04,8.4,5.46,12.38,8.59,8.17,6.42,17.21,11.59,25.27,18.2,1.09.9,1.9.69,2.91-.51,6.37-7.58,14.25-9.78,23.43-6.51,2.22.79,3.33.1,4.29-1.89,4.04-8.36,8.97-16.19,13.79-24.07,5.43-8.86,11.65-17.14,18.01-25.29,1.12-1.44,1.54-2.88,1.53-4.66-.06-12-.06-24-.09-36,0-4.25,0-4.21,4.04-4.21,11.9-.02,23.8-.05,35.7-.13,1.07,0,2.16-.19,3.06-1.01,7.08-6.39,14.66-12.1,22.4-17.58,9.22-6.51,18.63-12.69,28.61-17.89,3.16-1.64,3.72-2.68,2.43-5.68-2.98-6.95-.5-17.88,5.69-22.95,1.78-1.46,2.05-2.77.78-4.93-5.02-8.57-9.76-17.31-14.73-25.91-3.13-5.41-5.34-11.5-9.48-16.14-6.57-7.36-4.01-16.99.4-22.59,3.74-4.75,8.55-7.75,14.3-8.98,6.62-1.42,12.96-.61,18.49,3.75,2.86,2.26,5.07,5.15,5.21,9.09.1,2.84.43,5.59.97,8.38,2.05,10.43,3.83,20.91,5.72,31.38.77,4.29,1.53,8.59,2.35,12.87.32,1.67,1.39,2.58,3.06,2.27,2.56-.48,5-.01,7.36.87,1.95.73,3.13-.05,3.62-1.86,1.18-4.38,2.85-8.56,4.31-12.83,2.81-8.23,5.66-16.43,8.54-24.63,2.58-7.36,5.21-14.71,7.81-22.07,1.47-4.16,2.75-8.4,4.41-12.47,2.91-7.12,5.41-14.41,8.12-21.61,2.91-7.72,5.69-15.49,8.65-23.18,2.04-5.31,4.53-10.45,6.4-15.81,3.69-10.56,8.2-20.76,12.23-31.18,5-12.9,10.46-25.61,15.74-38.4,1.39-3.36,2.84-6.71,4.26-10.05.8,2.51.05,4.82-.36,7.08-1.89,10.66-2.9,21.45-4.38,32.17-1.21,8.72-2.13,17.48-3.2,26.23-1.14,9.3-2.39,18.58-3.41,27.89-.94,8.51-1.66,17.05-2.94,25.51-.7,4.64-.54,9.34-1.28,14-1.09,6.85-1.16,13.87-2.15,20.74-1.75,12.17-2.47,24.44-3.81,36.64-1.72,15.67-2.63,31.43-4.04,47.14-.41,4.51.03,9.07-.69,13.52-1.24,7.61-1.42,15.31-1.98,22.96-.58,8.06-1.55,16.11-1.66,24.21-.04,3.07-.08,6.18-.5,9.21-1.59,11.55-1.62,23.23-2.34,34.83-.88,14.21-1.82,28.43-2.33,42.67-.15,4.27-.18,8.56-.56,12.85-.47,5.31-.29,10.67-.53,16.01-.07,1.69-.41,2.56-1.75,3.15-1.8.79-3.62,1.53-5.42,2.32-7.97,3.51-15.93,7.06-23.92,10.53-6.69,2.91-13.41,5.72-20.11,8.61-3.66,1.58-7.28,3.24-10.94,4.82-3.73,1.61-7.5,3.12-11.22,4.74-5,2.18-9.96,4.45-14.96,6.64-5.02,2.19-10.1,4.23-15.06,6.56-.93.44-2.98.9-2.43,2.31.45,1.15,2.24.42,3.43.06,11.62-3.51,23.31-6.74,35.07-9.71,8.73-2.2,17.38-4.7,26.12-6.83,12.46-3.03,24.98-5.84,37.48-8.75,2.92-.68,2.94-.67,2.85,2.56-.47,15.54-1.14,31.08-1.38,46.63-.33,21.47-.57,42.94-.92,64.41-.28,17.34-.12,34.7-.15,52.05,0,5.21,0,5.24-5,5.14-8.07-.15-16.11.63-24.17.8-7.54.15-14.96,1.41-22.39,2.36-8.42,1.07-16.78,2.86-25.07,4.93-14.28,3.58-28.32,7.87-41.98,13.52-10.96,4.53-21.77,9.34-32.06,15.35-.47.27-.94.74-1.47.26-.42-.39-.06-.91.03-1.37.8-4.04,1.75-8.05,2.38-12.12,1.83-11.65,4.21-23.17,6.72-34.68,1.14-5.2,2.4-10.38,3.2-15.63.93-6.14,2.33-12.18,3.51-18.26,1.63-8.38,3.44-16.72,5.18-25.08,1.41-6.78,2.98-13.53,4.49-20.29,1.14-5.1,2.32-10.22,3.54-15.31,1.3-5.41,2.3-10.88,3.58-16.29,2.07-8.78,4.24-17.53,6.4-26.28,2.27-9.25,4.53-18.5,6.88-27.72,2.33-9.15,4.77-18.27,7.16-27.4,1.82-6.95,3.59-13.91,5.46-20.84,2.19-8.09,4.47-16.15,6.73-24.21,1.7-6.05,3.42-12.09,5.17-18.12,1.36-4.71,3.04-9.35,4.09-14.13,1.64-7.48,4.39-14.59,6.37-21.96,1.92-7.13,4.35-14.12,6.59-21.16,1.75-5.5,3-11.17,5.24-16.51.29-.68.38-1.45-.07-2.1-.52-.75-1.23-.46-1.92-.23-3.28,1.11-6.18,3.06-9.25,4.63-13.77,7.03-26.62,15.6-38.99,24.97-2.14,1.62-4.09,3.33-7.25,3.29-17.15-.24-34.31-.15-51.47-.16-3.14,0-3.42.26-3.34,3.45.13,5.1.15,10.2.31,15.31.35,10.77.28,21.56.53,32.33.12,5.14-.44,9.53-3.87,14.02-5.72,7.49-10.32,15.9-14.97,24.2-6.87,12.26-12.79,24.99-17.96,38.1-4.17,10.57-7.7,21.39-10.57,32.4-2.63,10.07-4.97,20.23-6.45,30.57-.49,3.45-.48,6.96-3.46,9.72-5.47,5.08-10.67,10.49-15.83,15.92-7.13,7.51-14.19,15.09-21.65,22.25-1.34,1.29-1.12,2.49.13,3.72,3.35,3.29,6.7,6.58,9.99,9.94,9.22,9.41,18.34,18.93,27.66,28.23,1.73,1.72,2.63,3.45,2.84,5.82.52,5.98,1.95,11.79,3.16,17.63,1.85,8.95,4.09,17.78,6.86,26.47,3.01,9.45,6.16,18.84,10.13,27.93,2.88,6.61,5.56,13.3,8.97,19.65,2.03,3.78,3.53,7.9,6.35,11.22.04.11.11.21.21.28,1.22,3.68,3.53,6.77,5.26,10.17,2.83,5.56,6.88,10.31,10.27,15.49,1.27,1.94,3.06,3.67,3.05,6.35-.07,18.49-.09,36.97-.14,55.45,0,3.5.25,3.81,3.57,3.78,16.13-.16,32.27-.33,48.4-.5.7,0,1.41-.08,2.1-.2,2.53-.46,4.73.11,6.81,1.75,9.05,7.16,18.64,13.48,28.49,19.35,7.3,4.35,14.88,8.23,22.52,11.93,12.97,6.28,26.44,11.14,40.12,15.44,6.66,2.09,13.43,3.67,20.19,5.26,5.55,1.31,11.1,2.76,16.84,3.02,2.01.09,3.49,1.16,4.85,2.61,12.21,13.03,24.87,25.61,36.85,38.87,1.26,1.39,2.36,1.63,3.73.11,2.4-2.66,4.9-5.22,7.36-7.81,9.48-10.01,18.95-20.03,28.46-30.01,1.69-1.77,3.36-3.7,6.09-3.72,2.59-.02,5.09-.66,7.63-1.09,7.8-1.31,15.46-3.29,23.1-5.25,5.42-1.39,10.73-3.43,16.09-5.16,6.5-2.1,12.9-4.47,19.17-7.13,13.45-5.71,26.48-12.35,38.89-20.2,3.45-2.18,7.25-3.86,9.79-7.37,5.38-7.46,10.39-15.17,14.8-23.28,4.33-7.96,8.42-16.06,11.82-24.49,2.25-5.58,4.21-11.28,6.11-16.99,1.85-5.55,3.35-11.23,5.21-16.78,1.05-3.16.41-4.29-2.82-3.89-3.03.37-6.04,1.31-9.05,1.26-6.46-.09-12.71,1.76-19.14,1.82-2.73.02-5.44.57-8.14,1.09-1.8.34-3.66.36-5.49.53,4.75-2.41,9.77-3.57,14.69-5.07,5.31-1.62,10.59-3.35,15.93-4.87,5.31-1.51,10.47-3.58,15.76-5.21,1.68-.52,2.59-1.45,2.81-3.12.16-1.22.38-2.38.99-3.46.52-.92.47-1.92-.04-2.79-.58-1-1.51-.52-2.34-.37-8.08,1.42-16.2,2.69-24.25,4.29-10.51,2.09-21.04,4.03-31.57,5.97-7.84,1.45-15.64,3.19-23.45,4.78-.63.13-1.35.45-1.9-.67,1.39-.34,2.7-.5,3.89-.99,5.27-2.17,10.83-3.37,16.23-5.14,5.58-1.82,11.25-3.37,16.86-5.1,7.03-2.16,14.05-4.39,21.08-6.57,8.98-2.79,17.97-5.55,26.94-8.35,1.3-.41,2.53-1.05,2.87-2.59.31-1.43.7-2.79,1.34-4.11.4-.84.51-1.95-.16-2.78-.74-.92-1.6-.15-2.39.03-8.76,2-17.51,4.06-26.28,6.01-10,2.23-20.02,4.32-30.02,6.56-9.46,2.13-18.9,4.39-28.35,6.58-11.74,2.72-23.49,5.45-35.24,8.14-2.56.59-5.16,1.01-7.74,1.51-.03-.14-.05-.29-.08-.43,5.1-1.83,10.21-3.66,15.31-5.49.3-.06.6-.12.91-.18.38.01.78.12,1.12.02,4.4-1.31,8.81-2.59,13.17-4.02,4.12-1.35,8.32-2.45,12.31-4.21.23-.04.47-.08.7-.13,3.37-.78,6.74-1.54,9.86-3.15.3-.06.6-.12.9-.17,1.5,0,2.84-.51,4.05-1.41.24-.04.48-.07.71-.1,2.47-.22,4.8-.88,6.82-2.46.38-.02.76-.04,1.14-.07,3.54-.56,7.02-1.31,10.14-3.27.39-.03.77-.06,1.16-.09,1.33.2,2.42-.27,3.35-1.23.29-.08.59-.15.88-.23,3.78-.46,7.36-1.79,10.92-3.02,2.54-.87,5.37-.97,7.63-2.71.24-.04.48-.07.72-.11,4.77-.97,9.41-2.35,13.88-4.33.23,0,.46-.02.7-.02,4.48-1.07,8.85-2.49,13.15-4.15.3-.06.59-.13.89-.19.97.2,1.69-.16,2.17-1.05.15,0,.29-.03.42-.1,1.37.08,1.92-.88,2.31-2,.45-1.29.9-2.59,1.27-3.91.6-2.11-.15-2.98-2.22-2.48-3.12.76-6.24,1.46-9.42,1.96-2.83.44-5.64,1.19-8.46,1.78-7.62,1.59-15.19,3.43-22.77,5.23-5.69,1.35-11.38,2.79-17.1,3.95-6.1,1.24-12.2,2.55-18.3,3.85-9.21,1.97-18.33,4.41-27.51,6.5-7.44,1.69-14.93,3.12-22.38,4.76-5.55,1.22-11.06,2.68-16.61,3.89-8.31,1.82-16.61,3.68-24.85,5.83-1.22.32-2.51.63-3.87-.02.38-.7.96-.77,1.46-.92,8.38-2.41,16.82-4.61,25.12-7.28,6.01-1.94,12.02-3.9,18.07-5.7,7.57-2.25,15.09-4.7,22.63-7.08,5.43-1.71,10.87-3.42,16.3-5.14,3.2-1.02,6.39-2.11,9.61-3.07,4.24-1.26,8.54-2.34,12.76-3.66,3.58-1.12,7.12-2.48,10.71-3.41,7.25-1.86,14.25-4.56,21.48-6.5,5.42-1.45,10.69-3.48,16.08-5.07,8.25-2.44,16.51-4.8,24.67-7.55,1.73-.58,2.94-1.53,3.4-3.32.44-1.74,1.28-3.29,2.04-4.88.54-1.12,1.25-2.37.46-3.39-.73-.94-2.07-.4-3.1-.11-5.19,1.45-10.36,2.95-15.53,4.44-5.85,1.67-11.71,3.28-17.51,5.14-5.81,1.86-11.76,3.26-17.64,4.9-7.84,2.19-15.67,4.41-23.5,6.61-5.95,1.67-11.9,3.35-17.86,5.01-7.69,2.14-15.39,4.28-23.09,6.41-7.99,2.2-15.99,4.37-23.97,6.6-5.73,1.6-11.4,3.49-17.17,4.89-7.98,1.93-15.83,4.38-23.76,6.49-7.78,2.07-15.46,4.59-23.24,6.66-9.68,2.57-19.27,5.44-28.91,8.15-1.14.32-2.39.93-4.35.29,3.87-1.33,7.12-2.44,10.36-3.55,6.52-2.24,13.04-4.5,19.58-6.71,6.75-2.28,13.52-4.49,20.27-6.78,9.39-3.19,18.75-6.48,28.17-9.6,1.53-.51,2.97-1.24,4.57-1.61,3.51-.83,6.99-1.88,10.36-3.18,3.48-1.34,6.91-2.81,10.49-3.85,4.43-1.29,8.72-3.02,13.14-4.33,2.56-.76,5.14-2.08,7.73-2.91,5.2-1.67,10.29-3.63,15.48-5.33,6.26-2.04,12.48-4.21,18.72-6.33,6.61-2.25,13.21-4.52,19.82-6.77,5.19-1.76,10.29-3.82,15.6-5.23.87-.23,1.9-.34,2.3-1.44.23-.05.47-.1.71-.15,3.05.03,5.58-1.57,8.23-2.79.23-.05.46-.09.7-.13,1.32.3,2.23-.44,3.07-1.33.38-.04.76-.09,1.14-.13,1.35.38,2.24-.42,3.09-1.31.23-.04.46-.07.69-.11,3.6-.21,6.82-1.89,10.11-3.12,2.05-.77,4.56-.58,6.12-2.6.23-.04.46-.08.69-.12.88.6,1.67-.02,2.44-.28,3.93-1.32,7.88-2.61,11.75-4.11,1.62-.63,3.67-.85,4.48-2.79,1.23-2.97,2.15-6.05,3.87-8.81.96-1.55.17-2.66-1.65-2.58-1.01.04-2.02.25-3,.51-5.35,1.45-10.69,2.92-16.04,4.4-5.33,1.48-10.62,3.09-15.94,4.58-7.72,2.17-15.41,4.52-23.12,6.76-5.99,1.75-11.96,3.58-17.93,5.42-4.85,1.5-9.68,3.08-14.54,4.58-5.45,1.68-10.98,3.15-16.37,5.01-6.66,2.3-13.48,4.07-20.11,6.48-6.92,2.52-14.06,4.37-21.01,6.8-6.74,2.36-13.56,4.41-20.26,6.91-6.44,2.41-13.08,4.24-19.59,6.45-8.14,2.76-16.24,5.68-24.36,8.48-4.72,1.63-9.49,3.13-14.2,4.78-4.72,1.65-9.34,3.65-14.11,5.08-6.59,1.96-12.94,4.62-19.43,6.86-4.44,1.52-8.8,3.26-13.24,4.78-6.28,2.15-12.63,4.1-18.89,6.32-7.89,2.79-15.7,5.85-23.6,8.64-8.28,2.92-16.63,5.61-24.92,8.51-13.71,4.8-27.6,8.74-41.93,11.11-7.37,1.22-14.77,1.78-22.18,1.9-9.94.16-19.77-1.06-29.48-3.52-9.58-2.43-18.49-6.41-27.11-11.21-6.13-3.42-11.81-7.55-17.05-12.3-3.82-3.46-7.54-7.05-11.01-10.91-.34-.38-.97-.78-.55-1.41.31-.47.88,0,1.32-.09h0c.16.81.75.94,1.42.97h0c.16.93.95,1.24,1.59,1.67,11.25,7.63,23.41,13.23,36.29,17.11,9.34,2.82,18.98,3.96,28.64,4.8,1.82.16,3.52.12,5.05-1.29,9.14-8.48,18.86-16.2,28.9-23.49,7.4-5.37,14.97-10.5,22.78-15.21,6-3.63,12.14-7.02,18.27-10.41,7.79-4.32,15.82-8.1,23.96-11.6,8.42-3.62,16.84-7.31,25.61-9.99,2.12-.65,3-2.03,2.95-4.31-.07-3.4.03-6.79.5-10.17.88-6.26.64-12.61,1.17-18.89.85-10.16,1.37-20.34,2.09-30.5.63-8.95,1.29-17.91,1.71-26.88.32-6.87,1.54-13.67,1.53-20.56,0-8.67,1.26-17.26,1.75-25.9.52-9.35.94-18.73,1.96-28.06.67-6.02.6-12.11,1.08-18.16,1.1-13.95,1.88-27.92,2.81-41.88.53-8.07,1.1-16.14,1.65-24.21.69-10.17,1.39-20.34,2.05-30.51.55-8.48,1.02-16.96,1.59-25.44.89-13.23,1.76-26.47,2.76-39.7.6-7.99.79-16.02,1.51-23.98,1.15-12.73,1.58-25.51,2.63-38.25.62-7.49.98-15.01,1.49-22.52.91-13.31,1.95-26.62,2.72-39.94.48-8.24.98-16.47,1.7-24.69.32-3.67.57-7.4.02-11.1-.02-.18-.03-.36-.05-.54,0,0,.09-.16.09-.16l-.1-.16v-.02c.82-.27.64-1.01.71-1.62,1.57-14.48,1.95-29.06,3.25-43.56.64-7.08.78-14.21,1.34-21.32,1.19-15.24,1.97-30.52,2.95-45.78.11-1.75-.23-3.67.69-5.2.72-1.19,2.33-.32,3.51-.85,1.92-.87,2.66-.16,2.45,2.06-.58,6.2-.82,12.44-1.07,18.64-.63,15.77-1.23,31.55-1.89,47.32-.48,11.4-1.02,22.8-1.4,34.21-.62,18.37-1.58,36.72-2.38,55.08-.71,16.17-1.29,32.36-1.93,48.54-.59,14.97-1.35,29.93-1.81,44.89-.48,15.71-1.47,31.38-1.89,47.09-.38,14.33-1.55,28.63-1.85,42.95-.36,17.25-1.68,34.45-2.14,51.69-.41,15.14-1.17,30.26-1.81,45.39-.59,14.07-1.31,28.14-1.81,42.22-.26,7.2-.58,14.4-.9,21.59-.87,19.49-1.64,38.99-2.4,58.49-.18,4.62.05,9.26-.28,13.85-.96,13.33-1.21,26.7-1.78,40.04-.11,2.54.73,3.13,3.18,2.56,2.59-.6,5.16-1.29,7.76-1.8,9.69-1.91,19.46-2.94,29.31-3.66,11.31-.83,22.54-.07,33.71,1.31,10.48,1.29,20.75,3.86,30.81,7.23,1.56.52,3.02.54,4.59.03,8.28-2.67,16.58-5.29,24.88-7.9,8.22-2.58,16.49-5,24.66-7.74,7.63-2.56,15.34-4.81,23.04-7.13,5.47-1.65,10.93-3.32,16.4-4.97,7.02-2.13,14.03-4.31,21.07-6.36,7.41-2.15,14.87-4.13,22.29-6.25,6.09-1.74,12.14-3.61,18.24-5.33,7.67-2.16,15.37-4.19,23.04-6.32,6.33-1.76,12.64-3.58,18.96-5.37.59-.16,1.28-.5,1.72.17.36.54-.13,1.02-.37,1.54-2.57,5.6-5.12,11.21-7.66,16.83-2.18,4.82-4.39,9.62-6.51,14.46-2.9,6.63-5.78,13.27-8.56,19.96-2.13,5.13-4.01,10.36-6.13,15.49-3.76,9.06-6.99,18.35-10.24,27.61-4.82,13.72-8.41,27.85-12.43,41.83-2.19,7.65-4.2,15.38-6.22,23.08-1.82,6.91-3.34,13.93-5.54,20.71-1.63,5.02-3.28,10.06-5.14,15.02-2.73,7.26-6.08,14.13-10.41,20.49-1.22,1.79-2.71,3.33-4.23,4.86-.7.71-.83,1.58-.5,2.46.34.89,1.19.6,1.86.61,4.69.11,9.39.24,14.08.28,8.78.08,17.55.09,26.32.14,3.72.02,4.04-.31,4.01-4.13-.14-15.72-.16-31.44-.5-47.16-.12-5.66.9-10.28,4.36-15.15,10.62-14.9,19.73-30.83,27.06-47.79,4.07-9.41,8.13-18.79,11.23-28.63,2.53-8.03,5.13-16.01,7.08-24.22,2.37-9.98,4.75-19.94,5.82-30.18.14-1.3.63-2.44,1.59-3.42,12.8-12.98,25.58-25.99,38.37-38.99,1.11-1.13,1.14-2.23-.02-3.33-1.26-1.21-2.56-2.38-3.79-3.62-11.57-11.73-23.12-23.47-34.71-35.18-.98-.99-1.35-2.19-1.47-3.47-1.3-13.16-4.84-25.83-7.85-38.61-1.45-6.16-3.72-12.12-5.76-18.12-4.6-13.57-10.34-26.65-16.79-39.36-6.89-13.57-14.86-26.49-23.89-38.67-1.49-2.01-2.23-4.03-2.21-6.65.11-17.91.06-35.83.06-53.75,0-2.49-.72-3.23-3.06-3.12-10.8.5-21.61.22-32.42.43-4.15.08-8.29.14-12.44.25-5,.13-9.88.95-14.64-2.93-9.74-7.95-20.51-14.45-31.45-20.54-2.34-1.31-4.69-2.6-7.06-3.84-.81-.42-1.77-1.12-2.62-.4-.93.78-.24,1.84.09,2.69.46,1.19,1.16,2.28,1.65,3.46,1.96,4.74,3.86,9.51,5.82,14.26,3.56,8.59,7.22,17.13,10.73,25.75,3.17,7.78,6.2,15.63,9.29,23.45,3.07,7.76,6.16,15.51,9.22,23.27,2.13,5.38,4.24,10.77,6.34,16.16,3.38,8.71,6.78,17.4,10.09,26.14,3.33,8.79,6.54,17.63,9.83,26.43,2.28,6.11,4.62,12.19,6.89,18.3,1.45,3.91,2.78,7.88,4.25,11.79,1.66,4.42,3.5,8.76,5.1,13.2,1.74,4.81,3.22,9.71,4.94,14.53,2.97,8.31,6.11,16.57,9.05,24.89,2.16,6.14,4,12.4,6.23,18.51.65,1.79.19,1.96-1.23,1.93-7.13-.12-14.22.49-21.33,1.01-4.84.35-9.73.11-14.54.66-11.1,1.28-22.25,2.08-33.32,3.63-8.44,1.18-16.85,2.53-25.21,4.13-7.45,1.42-14.87,2.99-22.29,4.57-6.96,1.49-13.83,3.33-20.74,5.02-7.81,1.92-15.58,4.08-23.22,6.67-5.27,1.79-10.59,3.4-15.88,5.09-4.26,1.36-8.39,3.16-12.64,4.48-5.9,1.83-11.58,4.25-17.27,6.56-8.48,3.45-16.95,7-25.26,10.94-6.16,2.92-12.32,5.82-18.47,8.76-.68.32-1.27,1.4-2.03.87-.92-.65-.31-1.78-.22-2.7.33-3.28.67-6.55.55-9.85.04-.45.08-.91.12-1.36,1.06-4.51,1.77-9.05,1.31-13.71.02-.29.05-.59.07-.89.94-1.08.64-2.29.36-3.5.03-.29.05-.59.08-.88.95-2.54,1.4-5.15.87-7.87.04-.94.07-1.88.1-2.83.96-.9.62-1.96.33-3.02.04-.62.08-1.24.11-1.85.84-.41.59-1.25.67-1.92.64-5.38.97-10.79,1.56-16.17,1.29-11.73,2.02-23.52,3.14-35.27.92-9.58,1.59-19.18,2.23-28.78.32-4.74,1.19-9.46.85-14.24.02-.46.04-.92.05-1.38.99-4.03,1.09-8.13.85-12.25.04-.78.07-1.56.11-2.34.86-1.08.62-2.28.37-3.49.03-.3.06-.6.09-.89,1.08-1.14.62-2.6.63-3.89,0-2.08.82-3.23,2.82-3.39,3.53-.28,6.85-1.57,10.26-2.37,6.84-1.6,13.63-3.47,20.44-5.24,7.71-2.01,15.41-4.07,23.15-5.96,9.2-2.25,18.26-5.12,27.48-7.26,8.92-2.07,17.71-4.66,26.61-6.78,8.67-2.07,17.28-4.42,25.91-6.67,5.98-1.56,11.94-3.17,17.92-4.74,1.04-.27,1.79-.78,2.17-2.19-4.28.37-8.28.67-12.3,1.29-9.19,1.42-18.44,2.37-27.67,3.48-1.86.22-3.78.07-5.61.43-8.83,1.72-17.77,2.6-26.68,3.72-5.19.66-10.37,1.41-15.55,2.1-8.59,1.14-17.14,2.6-25.73,3.7-4.72.6-9.39,1.56-14.13,2.1-8.6.98-17.15,2.55-25.71,3.89-1.35.21-1.59-.41-1.5-1.66.46-6.53.72-13.08,1.32-19.6.51-5.57.46-11.15.87-16.73.4-5.45,1.09-10.95.52-16.45.02-.3.04-.6.06-.91.48-.3.41-.82.46-1.29,1.38-13.12,1.49-26.33,2.16-39.48.97-18.9,1.83-37.83,2.5-56.76.52-14.48.75-28.97,1.4-43.45.45-10.03.45-20.08.62-30.12.01-.86.32-1.79-.31-2.58,0-.31,0-.62,0-.94.4-.37.33-.88.35-1.35.26-10.12.56-20.23.78-30.34.24-10.85.35-21.7.42-32.55.22-33.46.09-66.92.08-100.38,0-.75.33-1.65-.48-2.24M441.74,240.77c-.06-.31,0-.73-.19-.9-7.34-7.12-17.53-4.93-22,3.06-.27.48-.33,1.18-.98,1.18-.52,0-.68-.58-.85-1.04-.7-1.85-2.25-1.88-3.72-1.62-1.45.26-2.83.9-4.27,1.26-1.9.47-2.7,1.84-2.8,3.66-.18,3.63-1.11,7.18-1.05,10.84.01.76.29,1.79-.68,2.1-.93.29-1.19-.77-1.75-1.28-2.07-1.89-3.18-4.79-5.86-6.03-.06-.11-.14-.2-.25-.26-.15-.18-.29-.35-.44-.53-.36-.43-.72-.87-1.08-1.3-.09-.95-.47-1.54-1.51-1.34-.43.02-.85.05-1.28.07-1.51.02-2.91.38-4.1,1.42-.14.02-.27.08-.38.17-1.23.1-2.36.32-2.53,1.93-.18,1.68.42,2.88,2.01,3.36,1.39.42,1.93,1.39,2.31,2.75,1.35,4.82,2.78,9.61,4.27,14.38.42,1.35.65,2.46-.6,3.46-1.09.87-1.13,2.1-.69,3.31.47,1.31,1.7,1.95,2.82,1.78,3.4-.52,6.69-1.57,9.71-3.3,1.11-.64,1.8-1.86,1.17-3.33-.63-1.48-1.81-2.58-3.31-2.06-2.59.9-3.07-.52-3.57-2.58-.46-1.95-.97-3.91-1.86-5.75-.36-.74-.88-1.57-.38-2.51,1.02-.13,1.31.76,1.8,1.33,1.61,1.88,3.19,3.78,4.77,5.69.86,1.04,1.82,1.9,3.23,1.27,1.41-.63,2.9-1.09,3.15-3.16.28-2.33.68-4.63.8-6.98.03-.67-.2-1.68.8-1.72.9-.04,1.02.97,1.12,1.62.32,2.27,1.2,4.35,1.88,6.5.48,1.54.18,2.41-1.34,3.01-1.61.63-3.06,1.62-2.27,3.8.77,2.14,2.44,2.63,4.4,2.06,2.48-.73,4.94-1.56,7.37-2.46,1.22-.45,2.27-1.28,2.11-2.84-.23-2.17.57-1.99,2.12-1.31,9.93,4.39,18.39-3.21,19.82-12.78.72-4.82-1.11-9.24-3.74-13.22-.5-.77-.97-1.72-2.12-1.66l-.04-.04ZM225.15,695.18c2.79-1.33,5.83-1.2,8.74-1.79,11.05-2.25,21.88-5.31,32.63-8.8,13.65-4.45,27.11-9.46,40.61-14.36,15.26-5.54,30.58-10.94,45.87-16.38,8.13-2.89,16.36-5.5,24.47-8.43,6.56-2.37,13.19-4.54,19.76-6.87,9.75-3.45,19.64-6.48,29.47-9.7.59-.19,1.33-.3,1.3-1.14-.03-.84-.73-.91-1.36-1.01-8.64-1.49-17.28-2.94-26.05-3.32-17.39-.76-34.53.9-51.37,5.58-1.59.44-2.63,1.15-3.3,2.7-2.62,6.04-5.49,11.98-7.81,18.16-.3.8-.7,1.49-1.6,1.58-.86.08-1.17-.62-1.57-1.23-2.53-3.89-5.13-7.74-7.61-11.67-.93-1.48-1.93-1.89-3.54-1.21-2.16.92-4.36,1.77-6.6,2.48-10.41,3.34-20.38,7.84-30.22,12.6-22.14,10.71-42.56,24.32-61.66,40.06-.37.3-.71.64-1.02,1-.34.38-.54.88-.18,1.3.22.26.67.31,1.05.47M397.44,348.66c-3.14.14-6.64,2.2-9.14,5.95-1.14,1.71-2.2,3.59-1.88,5.86.26,1.77,1.1,3.21,2.95,3.19,1.77-.02,2.45-1.47,2.66-3.16.44-3.56,2.11-5.37,5.58-6.12,4.14-.9,6.94,2.31,5.6,6.45-.32.99-.75,1.96-1.26,2.87-3.04,5.38-6.06,10.78-9.21,16.09-1.39,2.35.1,4.09,1.02,5.8.82,1.53,2.21.41,3.35,0,5.61-2.02,11.2-4.12,16.84-6.03,1.87-.63,2.75-1.39,1.77-3.45-1.15-2.41-2.65-3.25-4.36-2.05-2.45,1.73-5.32,2.28-7.97,3.43-.7.3-1.59.76-2.16-.06-.55-.79.15-1.49.56-2.17,2.35-3.92,4.64-7.88,6.37-12.14,2.94-7.24-1.79-14.49-10.72-14.45M411.87,306.68c-.21-2.58-1.06-4.81-2.73-6.64-3.2-3.5-7.2-4.2-11.44-2.84-4.35,1.4-7.48,4.29-8.43,9.2-.46,2.4.28,4.42,1.93,4.86,1.7.46,2.73-.59,3.31-3.41.7-3.42,3.24-5.63,6.64-5.77,3.85-.15,6.15,3.43,4.49,7.02-.58,1.24-1.14,2.5-1.84,3.66-2.92,4.88-5.88,9.74-8.86,14.58-.95,1.53-.77,4.37.55,6.07,1.15,1.49,2.4.46,3.62.05,5.58-1.84,11.16-3.71,16.75-5.51,2.18-.7,2.68-1.49,1.95-3.45-.82-2.2-2.58-3.3-4.11-2.24-2.61,1.81-5.78,1.97-8.48,3.47-.63.35-1.42.52-1.94-.18-.53-.71-.06-1.41.37-1.98,2-2.61,3.4-5.61,5-8.47,1.48-2.64,3.03-5.31,3.2-8.43M439.89,360.44c-.72-4.88-2.25-10.89-5.99-15.96-1.85-2.5-4.27-4.62-7.49-5.03-6.42-.8-11.58,3.85-11.71,10.83-.13,7.08,2.1,13.55,6.37,19.06,1.87,2.42,4.23,4.6,7.61,4.75,6.7.3,11.15-4.56,11.22-13.65M442.06,311.28c.08-6.06-1.53-10.81-3.67-15.31-1.54-3.25-4.2-5.62-7.29-7.37-1.83-1.03-3.79-1.11-5.69-.43-4.17,1.51-6.77,4.5-7.63,9.05-1.24,6.54,1.36,12.24,3.74,17.94,1.01,2.42,2.89,4.21,4.92,5.78,2.8,2.16,5.83,2.58,9.08,1.19,5.1-2.18,6.66-6.46,6.54-10.85M473.76,247.23c-.26-4.32-1.42-8-3.36-11.2-3.04-5.03-7.27-8.69-13.49-7.79-4.87.71-9.44,2.77-14.11,4.37-1.17.4-1.9,1.55-1.76,2.88.15,1.34.79,2.48,2.28,2.69,1.34.19,2.01,1,2.39,2.3,1.48,5.02,3.02,10.02,4.52,15.04.26.85.45,1.76-.27,2.51-1.18,1.23-2.07,2.59-.95,4.28,1.15,1.72,2.94,1.42,4.49.91,4.16-1.38,8.5-2.28,12.41-4.3,4.76-2.46,7.16-6.73,7.83-11.69M236.17,736.16c.86,0,1.72.03,2.58,0,1.61-.06,2.51.65,3.14,2.27,3.67,9.45,7.46,18.85,11.21,28.27.25.64.55,1.21,1.3,1.19.82-.02,1.23-.6,1.48-1.33,3.17-9.3,7.38-18.16,10.71-27.38.92-2.54,2.21-3.98,5.03-3.42,1.06.21,2.19.06,3.28.06,2.01,0,2.56.77,1.79,2.66-1.86,4.62-3.77,9.23-5.66,13.84-3.55,8.71-7.11,17.42-10.65,26.13-1.27,3.12-2.54,6.24-3.78,9.38-.73,1.86-1.5,1.96-3.1.69-3.08-2.46-3.99-6.12-5.37-9.51-4.2-10.25-8.3-20.55-12.42-30.84-1.37-3.43-2.39-7.02-4.15-10.28-.65-1.21.04-1.64,1.09-1.68,1.17-.05,2.35-.01,3.52-.01v-.02ZM406.35,740.02c2,2.88,3.72,5.75,3.78,9.59.06,4.09-1.46,7.3-3.81,10.31-3.75,2.24-3.73,2.23-1.24,5.91,3.76,5.56,7.47,11.15,11.26,16.69.58.85.53,1.33-.12,2.07-1.15,1.3-2.67,2.29-3.33,4.02-1.14.61-1.94.48-2.73-.77-4.52-7.16-9.16-14.24-13.7-21.38-1.64-2.59-5.15-3.66-7.79-2.21-1.04.57-.93,1.6-.93,2.56,0,5.58-.03,11.17.08,16.75.04,1.89-.48,2.56-2.39,2.52-5.58-.12-5.61-.05-5.62-5.73-.02-13.52.03-27.04-.05-40.55-.01-2.25.52-3.18,2.9-3.03,3.74.23,7.52.23,11.26,0,4.52-.27,8.7.42,12.42,3.25M388.5,750.21c.04,6.68.05,6.46,6.2,6.63,3.54.1,6.87-3.1,6.93-6.44.06-3.51-3.23-6.58-7.08-6.56-6.81.04-6.1-.89-6.05,6.37M280.13,761.17c0-7.37.01-14.74-.01-22.11,0-1.32.04-2.66,1.72-2.49,6.34.64,12.65-.14,18.98-.12,2.42,0,4.85-.04,7.28-.1,1.63-.05,1.93.72,1.31,2.12-.45,1.03-1.02,2.01-1.36,3.07-.53,1.63-1.48,2.25-3.16,2.21-4.46-.11-8.92-.12-13.38-.08-2.47.02-3.72,1.75-3.16,4.19.37,1.59,1.36,2.21,2.92,2.19,4.38-.06,8.77.04,13.15-.12,1.85-.07,2.58.49,2.49,2.44-.21,4.41.86,5.05-4.52,4.78-3.36-.17-6.72.12-10.08-.18-2.51-.23-3.54.98-3.55,3.59-.02,5.01.03,10.02-.15,15.03-.09,2.41.88,3.21,3.03,3.13,4.84-.18,9.69.26,14.53-.27,1.05-.12,1.82.35,2.15,1.45.02.08.05.15.07.23,2,5.97,2.96,5.89-3.69,5.81-7.43-.09-14.87-.04-22.3.04-1.77.02-2.29-.7-2.27-2.46.07-7.45.03-14.9.03-22.35h0ZM346.81,761.09c0-7.29.04-14.59-.03-21.89-.02-1.72.38-2.47,2.2-2.48,8.45-.05,16.91-.23,25.36-.36,2.14-.03,2.17.31,1.61,2.38-1.12,4.09-3.44,5.51-7.52,4.99-3.32-.42-6.73-.11-10.09-.1-2.45.01-3.42,1.08-3.4,3.54.02,2.41,1.36,2.92,3.4,2.88,4.31-.1,8.62.02,12.92-.11,1.81-.05,2.34.68,2.25,2.42-.25,4.78-.22,4.82-4.92,4.75-3.13-.04-6.25.15-9.39-.2-2.75-.3-3.75.73-3.78,3.58-.06,5.11-.03,10.22-.12,15.32-.04,2.11.89,2.92,2.84,2.9,4.54-.05,9.09.11,13.63-.12,2.12-.1,3.28.52,3.69,2.64.04.23.19.45.27.67,1.42,3.81,1.27,4.01-2.64,4-7.76-.02-15.51-.09-23.27.03-2.21.03-3.05-.54-3.01-2.97.14-7.29.05-14.59.05-21.89h-.03ZM312.99,760.91c0-7.21.08-14.42-.04-21.64-.04-2.48.62-3.85,3.2-3.85.83,0,1.71-.27,2.49-.61,1.92-.84,2.51-.16,2.5,1.87-.06,12.72-.05,25.45-.08,38.17,0,3.58.64,4.34,4.07,4.23,4.77-.15,9.54.32,14.31-.26.99-.12,1.77.42,2.27,1.4,2.77,5.49,2.67,5.67-3.34,5.7-7.67.03-15.35-.02-23.03.13-1.8.04-2.34-.51-2.32-2.28.05-7.62.02-15.24.02-22.86h-.04ZM452.91,766.51c0,6.64-.02,13.28.02,19.92,0,1.2-.41,1.65-1.52,1.49-.08-.01-.15-.05-.23-.06q-6.15-1.04-6.15-7.54c.01-11.02.03-22.03.04-33.05,0-3.27-.37-3.68-3.47-3.67-2.35,0-4.7-.07-7.04.08-1.66.11-2.46-.68-2.91-2.17-1.4-4.62-1.08-5.08,3.53-5.09,10.72-.03,21.45-.03,32.17-.13,1.69-.02,2.18.64,1.66,2.16-.4,1.15-.74,2.27-.84,3.5-.1,1.25-.83,1.76-2.09,1.72-3.28-.1-6.57-.06-9.86-.18-2.53-.09-3.43.66-3.45,3.33-.03,6.56,0,13.12,0,19.68h.12ZM423.24,786.05c-.7,0-1.41-.02-2.11,0-1.42.06-1.91-.65-1.91-2.08,0-15.15-.02-30.31-.07-45.46,0-1.68.66-2.54,2.23-2.84,1.46-.27,2.91-.61,4.33-1.05,1.63-.5,1.94.39,1.93,1.74-.09,15.46-.2,30.93-.28,46.39-.01,3.3.04,3.3-3.19,3.25-.31,0-.63,0-.94,0v.05M370.73,799.73c6.4.05,9.64,4.61,9.92,10.04.29,5.55-4.4,10.04-9.93,10.08-4.98.03-10.02-4.95-10.1-9.97-.08-5.17,4.93-10.19,10.11-10.15M370.82,802.92c-3.59-.03-6.61,3.17-6.59,7.01.01,3.52,3.03,6.63,6.44,6.64,3.62.01,6.67-2.99,6.74-6.61.06-3.75-2.98-7.01-6.59-7.04M343.54,810.22c-.26-2.72.31-5.71-.14-8.7-.21-1.37.65-2.28,1.78-2.4,1.58-.17,1.29,1.24,1.28,2.25-.06,3.63.31,4.05,3.8,4.06.55,0,1.09,0,1.64,0,4.05,0,4.28-.24,4.31-4.32,0-.87-.18-1.99,1.06-2.03,1.08-.03,1.65.82,1.82,1.87.08.47.07.97.02,1.45-.49,4.96-.28,9.92-.03,14.88.06,1.26.2,2.7-1.48,2.7-1.64,0-1.53-1.32-1.45-2.66.14-2.26.06-4.53.06-6.79,0-1.75-.72-2.71-2.54-2.69-8.16.1-7.31-1.03-7.29,7.19,0,.97.03,1.94.06,2.91.04,1.08-.18,2.04-1.42,2.05-1.2,0-1.52-.86-1.5-1.99.04-2.51.01-5.02.01-7.79M392.53,817.21c1.27.13,2.44-.55,3.61-1.21,1.05-.6,2.07-.55,2.58.64.51,1.2-.63,1.44-1.36,1.83-6.28,3.35-13.92.3-14.97-8.48-.43-3.58,2.32-7.77,6.13-9.5,3.41-1.55,6.72-.99,9.78,1.16.41.29.72.66.54,1.22-.19.6-.64.9-1.22,1.01-.76.14-1.34-.29-1.96-.63-2.89-1.62-5.42-1.3-7.97.98-2.38,2.13-3.01,5.01-1.82,8.32,1.01,2.81,3.6,4.66,6.66,4.66M334.36,819.65c-4.78-.02-8.16-2.51-9.61-6.82-1.21-3.58.12-8.35,3-10.81,3.05-2.61,7.98-3.03,11.18-.98.8.51,1.92.93,1.33,2.14-.67,1.36-1.75.6-2.64.15-4.45-2.18-8.12-.72-10.17,3.79-1.43,3.13-.32,5.48,1.62,7.69,2.1,2.39,4.72,3.02,7.45,1.91.58-.23,1.1-.61,1.66-.88.8-.38,1.57-.34,2.02.55.47.93-.02,1.48-.79,1.95-1.68,1.01-3.47,1.44-5.03,1.31M489.29,786.21c-13.49.17-24.02-10.81-24.04-24.98-.01-13.73,10.88-25,24.65-24.95,13,.05,23.86,12.96,23.71,25.26-.15,12.32-10.55,25.24-24.32,24.67M473.9,761.18c-.65,8.44,6.81,16.68,15.5,16.57,7.89-.09,15.54-6.66,15.7-16.3.15-9.37-8.26-16.11-15.3-16.37-8.85-.32-16.67,8.64-15.9,16.1M410.71,819.67c-5.46-.04-9.66-4.41-9.69-9.95-.03-4.81,4.47-9.94,9.83-9.91,5.97.03,9.92,5.17,9.87,10.02-.06,5.67-4.3,9.88-10,9.84M410.79,816.58c3.52,0,6.83-3.15,6.89-6.53.06-3.69-3.24-7.23-6.79-7.29-3.35-.05-6.58,3.5-6.53,7.19.05,3.6,2.99,6.63,6.43,6.63M442.1,253.76c-.02,2.13-.44,4.12-1.59,5.98-2.49,4.03-6.46,5.37-10.74,3.47-6.12-2.72-8.78-11.2-5.49-17.01,4.13-7.29,11.95-5.59,15.88.44,1.39,2.13,1.99,4.55,1.94,7.12M419.55,352.01c.28-1.54.36-2.6.66-3.59,1.17-3.74,5.17-5.18,7.86-2.5,4.92,4.93,6.88,11.19,6.35,18.22-.17,2.19-1.61,3.72-3.58,4.4-1.95.68-3.66-.09-5.1-1.58-4.12-4.27-4.65-10.02-6.19-14.95M437.22,309.75c.08,2.33-.38,3.81-1.09,5.16-1.39,2.66-4.39,3.36-6.84,1.71-1.9-1.28-3.28-3.07-4.04-5.24-1.06-3.04-2.11-6.09-2.62-9.31-.31-1.9-.06-3.74.6-5.49,1.3-3.41,5.02-4.3,7.71-1.9,1.69,1.5,2.99,3.28,3.73,5.5,1.12,3.37,2.12,6.77,2.54,9.58M467.79,246.91c0,3.72-2.05,5.98-5.14,7.35-6.16,2.73-6.37,2.58-8.3-3.95-1.16-3.94-2.36-7.86-3.65-11.75-.56-1.71-.01-2.65,1.52-3.15,1.49-.48,2.98-1.01,4.5-1.34,3.37-.74,6.8,1.04,8.82,4.53,1.47,2.54,2.32,5.29,2.25,8.31"/>
</svg>