<?xml version="1.0" encoding="UTF-8"?>
<!DOCTYPE svg PUBLIC "-//W3C//DTD SVG 1.1//EN" "http://www.w3.org/Graphics/SVG/1.1/DTD/svg11.dtd">
<!-- Creator: CorelDRAW -->
<svg xmlns="http://www.w3.org/2000/svg" xml:space="preserve" width="8.5in" height="11in" version="1.1" style="shape-rendering:geometricPrecision; text-rendering:geometricPrecision; image-rendering:optimizeQuality; fill-rule:evenodd; clip-rule:evenodd"
viewBox="0 0 8500 11000"
 xmlns:xlink="http://www.w3.org/1999/xlink"
 xmlns:xodm="http://www.corel.com/coreldraw/odm/2003"
 data-name="Layer 1">
 <defs>
  <style type="text/css">
   <![CDATA[
    .fil0 {fill:#ED3237}
   ]]>
  </style>
 </defs>
 <g id="Layer_x0020_1">
  <metadata id="CorelCorpID_0Corel-Layer"/>
  <g>
   <path class="fil0" d="M5621.43 2218c65.22,15.19 135.42,58.3 195.47,88.27l312.99 179.09c67.24,40.21 226.25,-19.49 314.4,-21.44 0,53.79 21.1,252.52 45.07,285.96 31.25,43.56 195.47,166.33 252.12,239.71 68.63,88.89 148.8,143.87 232.46,268.81 68.06,-18.16 142.9,-154.36 224.47,-92.52 43.53,33.01 144.4,167.41 144.4,224.94 0,37.49 -127.48,124.24 -160.79,141.87 7.8,33.47 39.6,76.83 56.22,104.56 64.78,108.07 125.32,217 174.84,335.91 17.87,42.94 31.49,77.49 50.04,120.21 11.54,26.59 15.11,29.51 25.2,59.92 32.38,97.51 63.33,86.42 193.82,146.68 19.49,9 38.13,16.73 57.91,27.21 -142.3,268.93 -118.13,236.72 -85.84,397.96 32.32,161.42 57.46,318.82 57.46,481.64 252.76,0 255.37,-22.37 255.37,236.46 0,138.71 -151.32,104.04 -245.91,104.04 -2.43,109.23 -47.52,451.19 -66.11,529.76 -27.96,118.17 -50.46,147.19 -6.44,233.23 35.72,69.82 65.72,135.22 100.93,201.75 -49.23,32.97 -150.55,85.62 -211.02,110.56 -74.99,30.93 -91.54,149.11 -145.82,260.88l-87.75 167.62c-18.61,36.04 -36.81,68.2 -57.19,103.61l-65.72 104.53c38,20.11 70.32,47.68 105.61,74.1 108.16,80.96 40.38,137.83 -24.54,224.52 -117.87,157.41 -140.39,72.08 -270.24,-14.87 -31.95,21.39 -56.77,58.03 -81.09,89.15 -28.9,36.98 -49.42,55.76 -78.3,91.95l-254.22 256.52c-113.91,109.66 -93.23,46.3 -120.04,220.45 -7.61,49.45 -23.37,109.97 -24.38,155.32 -90.43,0 -178.7,-37.83 -274.3,-37.83 -31.97,0 -296.56,163.73 -370.06,197.43l-187.97 86.32c11.56,138.99 145.48,211.36 -50.78,280.25 -115.56,40.56 -176.44,102.91 -231.79,-35.52 -14.03,-35.09 -35.58,-80.63 -39.01,-121.78 -30.59,2.55 -45.11,10.72 -68.74,16.38 -304.89,72.97 -332.18,78.77 -656.86,118.72 -75.44,9.27 -80.92,-7.79 -128.3,41.94 -40.87,42.92 -135.43,145.05 -177.04,172.91 -40.79,-27.3 -132.52,-126.31 -172.45,-168.04 -54.31,-56.75 -32.89,-33.21 -124.79,-45.45 -186.41,-24.83 -246.24,-27.1 -452.39,-67.82 -90.72,-17.92 -190.38,-66.61 -281.31,-68.63 -3.5,41.89 -25.69,82.33 -40.43,120.37 -52.63,135.89 -117.34,82.72 -224.52,40.53 -119.81,-47.17 -130.59,-61.83 -91.09,-176.44 51.45,-149.21 87.67,-68.32 -350.23,-299.69 -194.17,-102.6 -80.91,-98.29 -326.28,-64.7 -47.65,6.52 -89.08,19.58 -130.81,20.51 0,-67.35 -24.06,-236.13 -43.14,-297.35 -9.57,-30.7 -17.67,-29.02 -38.7,-46.43 -20.43,-16.9 -24.43,-21.32 -46.59,-38.53 -110.36,-85.68 -403.89,-435.57 -410.69,-440.54 -128.86,34.41 -151.66,206.26 -276.2,20.82 -23.52,-35.01 -61.89,-75.07 -79.5,-110.45 -29.28,-58.82 7.05,-87.41 46.09,-115.94 38.5,-28.14 70.46,-56.74 110.98,-78.18 -100.69,-190.28 -188.6,-321.28 -277,-536.41 -44.65,-108.65 -38.48,-72.29 -177.12,-144.46 -37.67,-19.6 -67.64,-46.21 -113.37,-56.87 4.91,-59.13 132.41,-246 132.41,-274.28 0,-41.54 -94.57,-419.99 -94.57,-699.92 -252.2,0 -255.37,32.16 -255.37,-227 0,-153.44 116.67,-113.5 255.37,-113.5 0,-147.37 29.37,-344.04 62.48,-486.09 35.26,-151.23 39.47,-125.04 -46.67,-295.82 -17.62,-34.93 -27.66,-66.46 -44.18,-97.69 296.52,-156.9 176.22,-19.15 327.86,-343.68 54.41,-116.47 107.67,-229.73 172.87,-337.86 17.76,-29.45 54.17,-75.31 57.3,-112.95 -33.67,-8.99 -160.79,-105.93 -160.79,-141.87 0,-58.7 29.89,-83.96 62.16,-127.01 138.63,-185 141.7,-109.57 297.25,-5.42 23.61,-15.81 21.37,-15.89 37.97,-37.69 105.26,-138.14 234.28,-268 361.52,-385.67 30.9,-28.59 66.65,-43.31 88.17,-82.09 12.29,-22.15 41.99,-245.96 41.99,-289.03 399.72,0 192.9,103.76 532.64,-101.07 52.98,-31.94 236.83,-130.95 290.22,-135.39 -1.59,-71.31 -56.75,-126.43 -56.75,-198.62 0,-66.29 57.23,-71.16 106.75,-91.87 248.52,-103.88 185.5,-22.48 281.03,158.08l230.8 -62.42c566.86,-141.99 1073.42,-119.39 1639.61,-1.48 60.61,12.62 185.21,59.44 238.77,63.9 3.43,-41.21 32.37,-100.5 45.59,-134.12 47.47,-120.67 143.5,-56.52 232.83,-21.34 135.28,53.29 121.72,94.99 33.7,278.41zm-1390.51 788.49l-3.79 -45.85c-33.89,-11.32 -29.67,-9.44 -55.99,4.93l-188.06 13.93 -34.62 -394.71 -91.08 8.02c-11.22,46.72 28.31,401.75 36.13,474.52l334.94 -28.26 2.46 -32.57zm281.58 1079.26l9.44 25.74 -7.64 -20.83c7.43,-4.99 30.45,-27.48 -1.8,-4.9l-12.48 -65.51 -41.65 -8.44c-20,15.02 -14.86,7.73 -14.91,78.92 -0.09,106.36 -1.27,67.57 24.07,85.09 26.6,-27.12 16.65,-15.04 19.07,-61.11l21.96 31.31c4.75,26.24 -7.57,11.2 15.72,20.72 23.85,-11.97 10.95,11.16 25.29,-32.75 6.8,-20.85 7.57,-33.95 7.46,-55.04 1.39,2.18 3.7,2.68 4.07,6.59 0.37,3.94 2.98,5.08 3.39,7.03 9.62,45.32 -7.69,43.93 16.54,76.73 26.91,-14.18 10.44,13.2 19.86,-21.57l1.15 -95.39c-0.24,-3.5 -1.24,-15.92 -1.7,-18.1 -3.42,-16.04 -4.53,-13.17 -9.85,-22.24 -12.14,-0.54 -7.83,-3.64 -19.05,0.08 -18.11,6 -12.56,4.62 -22.68,11.82l-6.97 29.5c-1.86,2.91 -4.31,3.81 -5.59,8.69 -1.2,4.57 -4.1,6.11 -5.7,7.8 -9.54,10.06 -14.62,15.91 -16.87,18.96l0.66 1.81 -1.8 -4.9zm-281.55 -613.23c-11.13,24.07 -19.66,40.31 0.13,67.66 60.28,7.3 25.58,-0.48 36.68,-13.61l-2.95 -53.57c14.6,-20.63 10.7,-32.28 13.08,-64.46l63.62 6.44c82.98,13.89 41.12,131.37 145.31,134.8 -12.68,-52.33 -57.47,-111.88 -84.42,-140.06 25.96,-15.48 53.15,-19.07 67.34,-45.49 18.34,-34.14 14.11,-71.26 -10.93,-97.38 -35.96,-37.5 -159.48,-37.52 -216.2,-30.13l-11.67 235.78zm2449.33 2231.51l-18.49 83.1 -78.77 -4.54 -246.4 -13.36c-8.97,-66.97 27.04,-597.86 32.25,-713.78 4.66,-103.61 -10.93,-87.58 51.35,-137.55 34.32,-27.52 64.83,-56.88 99.65,-89.4l212.11 -175.79 -51.7 1051.31zm-2258.17 -1620.87c-37.49,-28.94 -39.7,8.89 -60.18,-30.26l21.3 -8.72c2.73,-0.52 5.72,-0.48 8.8,-1.01l40.31 -9.26 1.39 -15.65c-29.29,-12.83 -71.08,-8.67 -108.52,-5.32l-0.28 134.24c3.72,16.59 4.54,12.65 10.19,21.67 40.02,-11.07 21.67,-18.47 28.52,-71.28l37.59 5.65c26.03,-8.73 11.27,2.72 20.88,-20.07zm273.81 -815.75c35.84,4.26 19.34,9.44 46,-8.24 13.96,-9.27 20.69,-19.81 28.33,-29.13 -38.91,-20.97 -63.38,5.4 -74.33,37.38zm1385.98 2629.1c17.7,-29.66 8.39,-78.2 21.89,-116.95l148.32 8.86 55.31 -1.09 -26.54 630.05c-35.33,-15.15 -138.3,-150.52 -177.51,-188.49 -50.29,-48.7 -32.3,-67.38 -27.15,-152.02 3.61,-59.41 12.06,-122.01 5.68,-180.36zm-1991.71 -1869.39c-18.93,-26.41 -66.39,-18.69 -104.08,-12.36l-0.9 151.38c20.39,2.76 37.21,5.04 57.09,4.31l49.92 -14.86 20.93 -17.39c1.63,-42.31 -11.26,-28.26 -12.66,-56.49 -0.87,-17.73 19.69,-40.8 -10.3,-54.59zm698.92 3959.8c30.81,-7.56 28.25,-8.52 28.93,-56 0.68,-47.35 3.51,-54.95 -28.93,-64.3 -21.59,31.38 -20.62,88.4 0,120.3zm-251.81 3.19c13.52,-30.07 15.44,-95.46 -1.07,-126.03 -36.82,13.55 -29.59,8.09 -30.24,56.98 -0.7,53.8 -7.02,53.33 31.31,69.05zm-353.52 -3824.14c49.23,-9.76 8.92,-25.02 32.9,-79.66 11.7,-26.67 28.42,-37.5 41.69,-70.78 -52.1,-0.44 -21.84,-3.31 -65.13,50.09 -47.02,-46.82 -5.83,-47.35 -67.71,-51.48 11.83,34.75 23.37,39.93 38.14,68.06 20.46,39.02 3.17,51.61 20.11,83.76zm-110.39 3816.78c87.47,11.53 83.96,-44.42 63.02,-109.51l-61.19 -6.12 -1.83 115.63zm-163.89 2.92l18.91 0c56.25,-14.27 49.56,-63.98 32.09,-112.13 -130.4,-37.58 -82.39,112.13 -51.01,112.13zm141.37 -3844.05c-52.77,2.58 -24.13,-6.18 -31.78,-22.51 11.89,-10.18 -24.83,-20.33 31.8,-19.46 34.26,0.54 26.12,12.74 31,19.46 -6.96,11.73 4.83,20.76 -31.02,22.51zm-8.65 -66.7c-44.84,-4.18 -11.65,1.68 -23.05,-22.02 20.72,-16.51 -29.8,-15.5 31.89,-13.67 49.67,1.47 3.42,-1.3 24.5,13.67 -6.91,11.39 10.42,26.08 -33.35,22.02zm1233.93 -168.33c40.87,11.93 51.28,-29.74 107.74,-100.76 33.24,-41.78 61.57,-84.94 92.99,-121.8l-25.16 -25.43c-24.83,17.06 -111.46,138.96 -142.49,176.91 -21.55,26.39 -42.27,37.82 -33.09,71.08zm-1930.29 -407.78c3.71,35.73 85.67,161.56 112.54,210.74 18.83,34.46 18.98,60.24 53.15,42.06 12.7,-12.45 14.57,-6.34 -19.56,-66.14 -26.83,-47.02 -97.41,-179.78 -121.61,-198.03l-24.52 11.37zm822.63 1247.85l272.42 0c-15.64,-35.96 -44.39,-51.48 -65.51,-90.59l-40.27 -1.51 -66.22 0.23c-43.86,0 -84.24,59.24 -100.42,91.86zm1026.98 -1252.73c-9.42,14.12 -15.92,-3.79 -4.39,23.98l65.45 52.61c-30.79,74.33 -147.83,206.15 -127.75,228.92 30.42,34.52 60.13,-42.92 87.29,-85.69 26.29,-41.41 57.51,-76.97 71.76,-118.08 32.04,7.65 27.09,7.42 50.52,22.21 57.63,36.36 43.56,15.22 50.31,12.33 7.87,-28.23 4.87,-20.59 -30.06,-42.39 -23.88,-14.9 -36.27,-22.93 -57.76,-37.2 -26.31,-17.46 -80.33,-63.41 -105.37,-56.7zm-1825.28 220.89c-23.36,32.93 2.17,27.18 -10.41,80.62 -13.83,58.76 -115.3,101.09 -187.31,-8.2 -33.15,-50.28 -37.45,-103.87 6.87,-143.02 81.89,-72.38 102.59,44.06 133.85,-37.91 -156.14,-76.96 -270.26,94.87 -158.57,227.26 113.66,134.71 272.19,9.54 250.02,-90.98 -11.03,-49.97 -2.41,-27.8 -34.44,-27.77zm-472.72 413.52c-50.81,45.41 39.73,65.25 -23.55,137.38 -73.81,84.13 -239.64,-29.52 -201.13,-133.33 32.3,-87.04 101.65,-28.79 132.12,-79.49 -9.61,-9.99 1.71,-5.3 -17.53,-13.05 -114.7,-46.2 -237.17,157.17 -87.56,258.17 193.61,130.71 299.59,-137.25 197.64,-169.69zm2691.78 -82.26c-43.06,-39.34 -80.49,31.78 -138.41,-30.45 -45.06,-48.41 -18.21,-111.53 13.94,-147.91 29.28,-33.11 74.93,-64.98 129.93,-43.58 60.55,23.56 54.98,68.2 55.85,86.83 0.8,16.82 -1.63,8.91 0.98,25.96 4.51,29.46 -7.64,1.11 6.66,20.57 111.09,-15.02 -52.83,-306.8 -226.43,-113.13 -112.52,125.52 17.34,272 129.76,233.99 32.65,-11.05 25.41,-10.59 27.71,-32.28zm-992.05 -521.63c-26.88,-46.67 5.76,-127.95 22.82,-190.52l6.8 -45.9c-3.74,-24.75 4,-4 -7.96,-20.96 -43.87,3.78 -25.31,7.64 -56.27,123.73 -27.93,104.76 -27.59,213.94 122.91,204.04 90.48,-5.96 118.95,-148.34 134.91,-239.62 8.04,-46.02 -20.47,-96.2 -53.11,41.18 -23.54,99.05 -29.81,168.38 -108.26,160.75 -35.28,-3.44 -48.1,-12.94 -61.84,-32.7zm-705.94 -201.7c25.08,21.37 66.33,90.79 81.85,123.43l-94.11 19.15 12.26 -142.58zm-57.43 283.57c34.65,-10.46 24.09,-2.18 31.36,-40.59l7.23 -40.46c0.91,-2.56 2.31,-5.17 3.26,-7.42 11.06,-26.37 90,-35.57 118.36,-43.01 44.16,46.82 25.93,83.73 95.09,74.49 -6.22,-33.1 -168.13,-254.91 -173.87,-259.83 -67.65,-57.9 -69.33,129.39 -82.88,223.8 -1.82,12.66 -7.22,40.56 -7.8,50.52 -2.52,43.1 5.01,37.65 9.25,42.5zm1923.44 584.41c-32.69,-19.04 -48.39,-45.72 -64.83,-76.83l128.13 -46.09 -63.31 122.92zm-215.3 -52.7c39.43,53.78 47.99,1.7 117.29,-0.71l73.66 84.27c-14.94,72.52 -55.83,63.6 -16.42,123.17 26.63,-24.03 148.08,-258.63 147.52,-298.49l-18.32 -19.26c-45.5,3 -105.4,32.75 -152.85,50.04 -52.1,18.97 -112.47,32.37 -150.88,60.98zm-708.25 -595c-38.61,112.44 113.7,196.11 190.85,140.31 52.59,-38.04 31.66,-100.17 -6.52,-133.69 -36.62,-32.14 -87.56,-56.33 -84.06,-109.42 30.22,-26.4 60.7,-28.41 99.93,-1.06 60.96,42.51 -9.2,68.44 57.86,82.94 43.24,-67.77 -47.35,-131.73 -106.17,-137.67 -90.31,-9.12 -115.99,84.7 -61.54,136.13 12.25,11.57 153.42,111.99 59.78,140.03 -33.84,10.13 -81.59,-13.87 -95.78,-28.23 -49.65,-50.19 15.63,-72.43 -54.33,-89.35zm-1879.32 299c130.27,-44.51 230.64,172.95 95.56,221.27 -122.08,43.67 -248.5,-169.01 -95.56,-221.27zm-0.38 -38.72c-202.61,62.21 -83.18,349.57 95.03,297.42 69.55,-20.34 128.18,-99.59 93.65,-189.73 -22.78,-59.48 -101.25,-134.53 -188.68,-107.69zm1328.18 -532.76c51.22,-3.73 157.01,-11.31 156.15,53.9 -0.93,69.25 -107.31,46.57 -162.29,44.98l6.14 -98.87zm-553.81 293.35c-40.26,-13.73 -94.41,-55.78 -130.01,-79.39 -67.26,-44.62 -93.4,-72.79 -138.19,-50.95 4.59,34.83 66.91,161.29 88.14,214.34 15.08,37.68 13.45,59.98 42.81,59.58 36.85,-12.7 8.21,-39.07 -22.1,-108.9 -15.45,-35.59 -31,-73.56 -46.07,-111.8 46.67,23.55 85.61,51.67 132.97,81.87 47.18,30.1 87.18,76.33 138.83,50.51 -13.16,-45.38 -40.24,-101.55 -60.37,-147.37 -42.02,-95.65 -37.67,-126.84 -78.11,-123.94 -20.28,26.17 -8.44,21.04 25.37,100.43 16.8,39.47 35.86,75.53 46.72,115.63zm301.46 1338.87l549.24 0c-20.61,-33.53 -51.51,-60.26 -74.22,-90.58 -93.72,-2.62 -189.31,-0.57 -283.28,-0.75 -136.57,-0.27 -134.18,2.1 -191.74,91.33zm-1421.78 -1805.14c35.58,60.38 88.72,135.18 131.59,195.77l138.88 194.83 73.01 -48.71c-8.97,-26.23 -244.37,-376.4 -271.63,-396.7 -26.05,15.22 -52.62,30.37 -71.85,54.81zm-558.94 510.96c21.81,30.25 334.63,300.24 368.55,313.64l50.63 -68.07c-21.76,-31.08 -333.14,-298.86 -368.53,-313.45l-50.65 67.87zm1848.34 1449.81l811.8 -0.06c-18.95,-40.03 -53.83,-91.74 -109.33,-91.74l-636.53 1.46 -49.04 64.16c-17.46,23.72 -3.33,-1.61 -16.89,26.17zm973.52 -2101.05l-80.83 -41.33c-9.83,9.63 -5.41,5.53 -14.38,17.01 -5.42,6.94 -6.84,9.78 -11.8,16.38 -9.75,12.98 -17.36,22.72 -27.17,30.09 -27.61,20.71 -60.55,24 -96.33,12.63 -63.45,-20.17 -80.81,-90.42 -70.4,-169.14 8.44,-63.91 30.83,-130.8 89.66,-148.9 107.78,-33.18 137.56,70.87 148.26,88.24l89.09 -4.58c-14.77,-212.79 -370.46,-262.93 -424.81,41.79 -51.5,288.61 298.8,388.89 398.71,157.81zm-1108.35 2254.94l1081.16 1.28c-12.6,-31.37 -52.26,-92.31 -101.99,-92.31l-871.33 0 -37.77 0.82c-18.67,26.19 -57.98,62.81 -70.06,90.2zm2408.73 -1490.43c-6.2,-36.03 -23.56,-53.2 -37.58,-85.41 -64.99,19.59 -121.62,45.43 -166.44,-14.42 -49.78,-66.47 -5.31,-133.37 29.83,-177.01 84.69,-105.14 249.5,-142.57 237.99,78.22l75.2 43.76c113.82,-163.38 -158.92,-433.65 -375.18,-202.89 -64.21,68.54 -117.51,179.25 -46.62,289.35 51.93,80.65 167.63,137 282.8,68.41zm-4282.24 245.91c20.18,-40.93 75.31,-145.63 145.64,-102.47 72.97,44.78 -11.09,139.62 -33.23,177.43 -30.56,-9.64 -96.89,-51.74 -112.41,-74.96zm-123.59 37.84l394.18 264.45 54.34 -74.15c-21.36,-22.24 -47.37,-36.46 -70.4,-51.22l-72.89 -53.96c25.28,-57.81 83.91,-109.3 87.52,-180.08 5.57,-108.69 -154.44,-256.65 -285.74,-69.22 -27.04,38.62 -91.74,127.94 -107.02,164.17zm1752.31 -1215.46c25.63,15.07 5.26,-1.14 25.36,20.97l83.62 125.42 -120.89 30.77 11.92 -177.15zm-125.63 406.09l97.75 -24.42 9.27 -110.14c41.61,-31.2 130.07,-44.87 183.25,-55 30.04,28.36 47.54,56.35 68.32,87.79l98.96 -22.52c-10.86,-36.06 -267.46,-363.56 -309.16,-410.48 -23.07,1.97 -42.95,5.08 -64.88,12.18 -56.47,18.28 -39.83,56.58 -53.8,205.24 -9.57,101.79 -22.04,211.16 -29.72,317.36zm1525.87 -80.57c27.82,19.78 56.95,26.43 87.69,35.1l73.28 -194.26 175.73 61.28c-11.66,72.85 -54.27,132.35 -62.33,204.45l88.4 27.75 159.36 -452.01 -92.97 -35.02 -59.76 173.45 -177.8 -56.41 57.99 -178.53 -92.48 -34.78 -157.1 448.97zm-1289.75 2250.35l1350.97 1.37c-20.42,-34.76 -52.18,-90.9 -105.09,-90.9l-1134.99 0c-49.7,0 -41.77,5.47 -66.26,34.17 -17.89,20.94 -33.96,34.24 -44.64,55.35zm2009.57 -2329.36c194.44,-71.01 236.73,232.53 47.85,305.22 -190.37,73.25 -227.74,-239.51 -47.85,-305.22zm-15.86 -93.15c-106.38,27.78 -219.09,152.69 -201.47,296.02 13.75,111.81 152.82,229.65 291.63,194.33 101.74,-25.88 209.77,-161.58 193.24,-297.83 -13.54,-111.42 -151.45,-226.99 -283.4,-192.52zm814.74 823.67c89.06,-31.38 169.44,41.53 167.66,124.65 -1.62,75.48 -88.05,142.66 -149.84,161.91 -170.19,52.99 -262.98,-200.18 -17.82,-286.55zm-27.8 -93.58c-388.19,124.45 -178.64,547.43 74.43,474.95 106.2,-30.42 234.66,-139.98 207.35,-284.16 -21.17,-111.71 -141.5,-235.76 -281.78,-190.79zm-3348.2 -844.88l137.37 278.81c-45.29,-15.06 -148.71,-86.93 -195.5,-115.2 -161.08,-97.25 -90.81,-74.57 -201.46,-37.03 10.24,45.26 178.98,370.15 213.12,432.83l78.63 -36.35 -132.72 -271.92c47.78,16.19 148.68,83.13 193.46,111.45 23.35,14.76 72.27,49.34 93.7,58.84 41.88,18.56 62.84,-11.39 106.24,-27.06 -9.84,-45.72 -77.22,-167.32 -102.34,-214.43 -30.56,-57.31 -88.68,-160.39 -106.7,-216.34l-83.8 36.39zm-603.49 741.81c20.48,-26.57 139.99,-163.46 195.69,-85.69 49.32,68.85 -82.93,152.94 -114.95,175.7 -27.07,-17.61 -60.87,-66.59 -80.74,-90zm-128.85 -153.72c58.12,-36.83 127.46,-133.63 173.72,-74.2 49.53,63.65 -97.1,157.24 -106.02,160.99 -29.69,-26.54 -54.78,-51.31 -67.71,-86.79zm-124.85 11.85l315.5 356.69c39.56,-22.5 183.84,-156.15 216.73,-196.79 70.52,-87.16 5.79,-238.55 -149.7,-200.18 5.91,-56.85 0.75,-102.04 -36.41,-132.19 -37.12,-30.11 -98.56,-32.62 -142.23,-5.35 -41.23,25.75 -177.81,146.96 -203.89,177.81zm1292.16 2094.98l1617.86 -0.02c-17.91,-36.37 -36.8,-43.65 -66.77,-90.67 -437.62,-10.27 -994.19,-0.81 -1444.78,-0.78 -54.06,0 -88.6,53.69 -106.31,91.47zm-149.52 170.04l1913.89 0.75c-7.07,-26.84 -64.21,-85 -83.38,-107.46l-1456.45 -0.22c-80.61,0 -166.97,-3.13 -246.74,-0.76 -51.54,1.53 -108.46,57.77 -127.33,107.7zm-1124.01 130.43l239.82 -17.14c13.48,54.46 31.37,399.58 14.01,434.13 -0.5,0.98 -102.39,114.36 -108,119.94 -31.98,31.87 -80.62,98.09 -109.99,111.95l-35.84 -648.89zm-336.3 27.07l311.27 -24.82c17.46,62.86 39.21,549.03 39.74,639.09 0.34,56.83 -26.89,72.72 -58.01,103.62 -57.64,57.24 -200.14,237.48 -244.07,262.97l-48.93 -980.86zm289.23 -860.29l145.28 121.23c25.59,24.34 41.31,34.23 70.81,61.67 35.26,32.78 42.85,26.04 45.96,96.76 7.2,164.42 27.7,351.28 24.96,512.89l-241.27 18.85 -45.75 -811.39zm-242.88 -218.69c28.01,26.46 68.1,60.76 101.15,88.03 142.61,117.61 116.56,81.87 126.57,242.57 6.98,112.14 42.45,631.62 35.57,702.5l-311.82 21.2 -54.72 -1141.97c33.6,19.54 70.94,57.16 103.24,87.67zm-92.64 2323.62c39.58,-28.25 92.65,-97.93 125.88,-134.85l445.04 -491.4c28.02,-29.43 40.14,-39.9 63.42,-68.88 30.61,-38.07 115.09,-108.75 120.19,-154.09 11.05,-98.54 -21.83,-389.14 -26.92,-510.5 -7.03,-167.65 -17.2,-335.43 -25.38,-505.76 -2.99,-62.3 3.76,-67.14 -33.89,-97.6 -123.54,-99.89 -741.06,-657.21 -793.43,-689.77l125.11 2652.85zm4780.91 -301.16l-239.13 -257.8c-23.48,-29.4 -68.97,-63.13 -77.18,-93.43 -12.51,-46.22 25.9,-551.47 27.09,-650.86l338 21.04 -48.78 981.06zm-306.27 -1032.02l-217.41 -9.78c-9.61,-124.23 15.06,-350.93 23.2,-484.15 8.59,-140.75 12.99,-96.98 87.46,-166.19 42.85,-39.82 99.37,-92.65 139.96,-120.61l-33.21 780.73zm398.76 1293.5l138.79 -2649.69 -786.09 677.14c-33.97,31.27 -45.04,30.32 -48.33,94.46l-55.58 1022.19c2.57,59.65 121.33,159.15 175.17,221.76 26.71,31.07 33.74,43.38 66.34,75.5l378.93 425.13c20.06,23.59 109.85,128.6 130.78,133.5zm-3784.33 100.15c27.93,-55.67 254.11,-329.69 308.79,-398.59 53.42,-67.3 105.23,-130.2 158.89,-200.77 39.43,-51.84 45.26,-48.67 124.84,-48.64 245.17,0.12 1572.77,-22.25 1608.36,-8.46 43.69,37.84 90.16,109.81 129.11,157.41 45.63,55.78 77.49,101.6 124.88,158.9 39.44,47.7 240.19,293.69 249.64,328.33l-2704.5 11.81zm-75.46 8.79l-649.49 7.99 887.4 -987.36c27.83,-27.34 42.11,-52.52 70.83,-80.76 50.41,-49.59 91.61,-113.7 142.17,-149.65 24.83,47.49 59.67,314.03 73.87,388.9 26.72,140.8 52.35,99.63 -117.51,303.87 -71.96,86.53 -134.48,169.27 -205.19,258.3 -34.3,43.19 -65.67,85.38 -100.06,126.98 -34.38,41.58 -76.62,89.44 -102.02,131.72zm2408.75 -1230c95.01,92.34 178.93,203.21 270.37,297.3l537.52 597.17c45.67,53.72 250.58,272.48 266.17,308.78l-620.06 4.17c-25.57,-5.94 -192.79,-230.07 -208.8,-251.4l-305.64 -384.76c-20.17,-24.98 -37.95,-35.3 -35.31,-78.17 1.65,-26.73 14.52,-75.89 19.92,-105.67 13.78,-76.21 48.31,-341.29 75.84,-387.43zm-147.56 514.01l-1658.96 10.22c-29.39,-10.63 -108.07,-524.09 -107.29,-546.45l1868.71 -10.94c-9.92,81.6 -77.46,491.98 -102.46,547.17zm1523.93 822.06c-36.48,-59.45 -75.1,-86.16 -116.24,-137.02 -31.01,-38.36 -81.63,-96.28 -115.49,-130.53 -123.73,-125.15 -235.19,-271.59 -345.33,-382.9l-633.66 -709.44c-115.76,-136.09 -117.48,-145.59 -212.72,-144.13 -318.2,4.89 -636.79,3.08 -955.5,4.83l-971.2 6.69c-33.08,9.39 -386.78,416.44 -466.71,506.31 -114.86,129.15 -237.2,252.3 -350.44,387.31 -19.93,23.75 -39.58,39.13 -59.62,62.93l-497.3 554.06c-12.32,15.36 -1.13,-2.85 -13.18,19.73l4737.39 -37.83zm-2608.01 -5105.82c709.35,-46.53 1373.21,131.04 1941.92,486.89 86.59,54.18 161.65,106.04 239.44,167.14 145.93,114.63 138.65,105.75 269.41,231.79 148.71,143.35 204.23,193.71 338.04,371.37 107.26,142.41 229.03,314.56 317.02,496.54 190.12,393.28 314.01,762.5 350.31,1267.37 50.13,697.15 -136.21,1378.2 -485.08,1939.54 -130.19,209.47 -199.8,281.76 -345.15,458.65l-156.3 155.97c-17.36,17.43 -28.45,32.95 -45.31,49.14l-222.18 184.63c-148.86,113.52 -309.34,225.32 -495.89,317.38 -386.46,190.75 -765.12,316.58 -1267.12,353.19 -528.76,38.56 -956.87,-55.14 -1400.44,-214.11 -432.27,-154.91 -782.96,-413.13 -1106.1,-719.5 -36.14,-34.26 -60.98,-67.74 -96.22,-102.47 -175.07,-172.52 -387.5,-490.07 -503.93,-716.09 -430.87,-836.5 -471.22,-1786.12 -138.91,-2668.65 121.81,-323.52 376.77,-751.15 619.08,-998.67 72.88,-74.46 123.54,-132.67 202.24,-204.5 543.17,-495.8 1207.7,-804.65 1985.16,-855.64zm-1076.16 -98.63c1.98,88.78 59.4,145.18 66.21,227 -29.41,15.56 -75.15,33.46 -105.39,45.94l-155.43 71.56c-125.55,55.72 -232.41,140.56 -348.22,200.98 -35.32,18.43 -219.1,-15.5 -261.13,-25.29 -47.1,202.15 10.7,197.34 -77.96,281.44 -33.01,31.31 -62.63,52.59 -94.69,85.02 -148.12,149.85 -305.07,298.89 -423.21,475.31 -68.67,-45.97 -210.19,-210.06 -245.92,-56.75 19.87,29.68 47.03,54.37 75.48,75.85 28.13,21.25 61.49,57.14 94.76,66.02 -2.7,32.5 -11.59,36.71 -26.28,58.84 -134.95,203.38 -241.23,424.67 -330.36,653.29 -29.95,76.81 -15.73,61 -87.7,92.02 -39.07,16.83 -80.12,46.54 -123.15,56.56 1.13,50.28 21.87,68.55 37.67,104.2 7.41,16.71 11.11,30.2 19.7,46.5 65.73,124.64 16.04,121.16 -7.45,277.54 -25.38,168.98 -49.93,326.96 -49.93,517.57 -46,0 -255.37,-26.03 -255.37,47.3 0,97.22 142.24,66.2 255.37,66.2 0,253.82 33.76,490.63 82.78,721.19 10.79,50.74 27.33,78.07 9.62,117.6 -22.89,51.06 -88.05,149.44 -92.4,201.62 44.81,10.44 79.3,38.28 114.08,56.18 134.6,69.22 92.11,56.19 151,189.5 17.75,40.18 32.57,75.57 53.34,116.91l116.61 223.89c38.83,75.3 93.26,143.37 132.46,217.48 -29.77,19.94 -54.79,42.63 -87.03,64.29 -17.55,11.8 -83.21,59.12 -83.21,77.59 0,166.83 200.23,-23.13 245.92,-47.29 14.86,55.64 116.92,154.71 155.33,204.07l267.78 280.8c22.4,22.5 28.11,24.89 51.2,43.38 94.46,75.61 89.15,67.39 105.44,168.85 6.83,42.53 21.9,119.44 25.57,163.59 65.98,-1.46 214.97,-52.29 264.63,-28.83l194.82 117.95c177.06,105.7 306.57,138.98 429.62,204.09 -5.5,66.03 -142.58,255.37 0,255.37 49.22,0 104.01,-176.86 113.5,-217.54 175.18,84.06 529.58,140.41 736.13,162.39 40.06,4.27 123.05,8.17 161.68,18.02 40.44,10.32 67.98,52.37 97.66,82.05 31.43,31.43 56.75,63.74 92.22,87.49 63.37,-16.93 122.43,-134.35 184.4,-165.54l471.9 -67.23c52.76,-12.37 99.86,-19.17 147.73,-31.97 45.73,-12.24 95.39,-24.43 141.88,-37.81 46.75,-13.46 82.41,-36.62 141.78,-37.94 9.54,40.91 63.73,208.08 113.5,208.08 84.35,0 64.3,-60.26 46.23,-112.3 -16.58,-47.77 -34.19,-98.28 -55.68,-143.07 122.99,-28.65 418.12,-190.81 527.94,-257.09 31.67,-19.11 68.98,-47.49 99.03,-62.2 55,-26.94 197.85,24.44 271.56,26.08 0,-68.56 24.51,-245.23 73.09,-286.33 20.85,-17.64 27.1,-18.43 47.61,-37.5l321.56 -331.06c55.48,-62.42 123.98,-131.95 163.06,-205.8 41.28,21.83 154.3,123.04 197.08,117.44 52.89,-6.91 79.69,-70.11 -22.82,-140.37 -19.09,-13.08 -26.78,-16.81 -45.58,-30.09 -27.43,-19.37 -23.39,-24.2 -53,-32.11 3.38,-40.73 39.61,-76.37 59.76,-110.48 132.94,-225.12 182.33,-333.39 286.31,-574.39 1.17,-2.72 4.56,-10.48 6.02,-12.89l7.98 -10.93c27.86,-30.99 174.18,-96.99 207.41,-104.73 -3.21,-38.54 -31.55,-83.63 -47.24,-113.54 -74.11,-141.28 -67.09,-90.55 -20.79,-285.52 14.77,-62.19 23.78,-125.19 34.44,-192.54 10.55,-66.58 16.18,-142.42 22.69,-204.32l10.91 -244.47c71.89,0 255.37,29.01 255.37,-56.75 0,-85.76 -183.48,-56.75 -255.37,-56.75 0,-214.83 -41.06,-428.48 -76.91,-632.48 -8.58,-48.84 -25.38,-63.08 -6.38,-112.21 21.63,-55.89 78.67,-145.64 83.29,-201.13 -43.44,-10.12 -77.57,-32.35 -117.52,-52.74 -67.12,-34.25 -64.55,-8.69 -93.57,-86.13 -94.06,-250.93 -217.01,-490.07 -365.87,-712.37 62.02,-41.54 144.68,-94.59 179.71,-160.79 -49.65,-93.85 -92.19,-49.14 -159.42,1.37 -25.61,19.24 -66.29,56.91 -95.95,64.83 -12.43,-46.56 -148.78,-199.41 -191.64,-243.44 -73.91,-75.91 -141.96,-161.06 -222.22,-231.76 -20.27,-17.85 -26.9,-18.79 -47.33,-37.79 -89.43,-83.19 -84.05,-44.02 -102.11,-172.18 -7.28,-51.69 -22.11,-112.1 -23.09,-156.61 -38.45,8.96 -234.66,39.46 -257.28,30.41l-291.29 -172.28c-34.3,-17.06 -63.94,-31.95 -100.9,-50.44 -58.61,-29.33 -155.26,-85.98 -220.7,-91.44 1,-44.47 18.9,-82.52 34.7,-116.64 15.91,-34.39 27.98,-77.35 31.51,-119.81 -27.7,-18.56 -33.41,-28.37 -66.21,-28.37 -39.43,0 -56.2,58.15 -69.05,91.73 -15.82,41.35 -35.03,85.41 -44.45,125.81 -51.98,-24.94 -169.23,-59.06 -228.86,-73.8 -368.91,-91.11 -595.72,-115.37 -991.24,-115.37 -537.49,0 -900.78,170.45 -1012.03,179.7 -46.02,-95.91 -49.82,-208.07 -132.42,-208.07 -21.96,0 -28.79,15.52 -47.29,28.37zm1256.17 5939.74c6.52,-17.95 -18.92,-25.28 19.86,-22.37 33.48,2.52 11.8,2.44 18.07,22.37 -11.22,7.28 16.32,9.87 -17.89,7.55 -15.8,-1.07 -13.02,-3.69 -20.04,-7.55zm257.07 -56.75c0,-55.54 -1.82,-68.33 30.48,-110.65 71.55,-8.61 88.42,14.66 88.42,82.28 0,150.52 -118.91,103.03 -118.91,28.37zm-433.28 64.48l0 -176.24c92.43,-6.75 149.8,-13.67 151.63,83.22 1.93,101.73 -56.05,100 -151.63,93.02zm773.85 -178.09c71.48,32.53 55.93,126.21 17.58,176.98 -69.18,9.66 -85.53,-9.6 -89.88,-74.38 -5.52,-82.13 21.31,-100.89 72.3,-102.6zm-802.81 132.54c-44.3,105.18 -218.69,36.33 -159.46,-92.56 42.73,-92.99 212.94,-34.41 159.46,92.56zm-332.66 47.31c-62.48,-2.37 -33.64,-2.18 -38.4,-179.19l61.96 -0.7 26.53 111.13 33.06 -110.68 59.26 -0.33 0 179.78c-51.37,-2.67 -36.3,18.74 -36.89,-113.18 -8.52,13.46 -50.05,206.12 -84.64,64.87 -6.72,-27.46 -9.95,-45.25 -18.2,-66.06l-2.68 114.35zm930.82 -126.4c3.38,-61.9 49.56,-59.09 104,-46.15 41.6,87.54 -29.44,91.21 -48.86,142.33 4.77,0 34.98,-0.79 36.68,-0.43 43.21,9.09 15.95,-6.93 25.38,21.17 -25.56,17.18 -83.92,9.82 -121.65,8.68 19.46,-82.03 91.07,-76.65 80.6,-144.99 -70.08,-17.19 -0.76,21.93 -76.14,19.39zm-266.5 1.67c0.06,-108.48 170.39,-48.43 93.19,40.07 -23.88,27.38 -31.13,15.15 -39.54,54.38l61.68 0.09 0 30.21 -125.5 -0.39c36.7,-106.74 92.28,-75.41 81.68,-147.56 -67.22,-7.33 -7.81,17 -71.52,23.2zm-2431.92 -535.85c43.33,125.65 292.98,392.73 400.36,477.23 204.98,161.27 287.1,225.44 533.99,345.78 825.68,402.42 2059.74,415.99 2877.92,-19.64 200.32,-106.66 387.72,-219.06 528.52,-350.86 79.52,-74.46 148.96,-135.22 220.34,-224.26 52.74,-65.78 141.22,-177.13 175.83,-263.16l-4736.96 34.91zm708.78 -5354.85c0,22.74 37.99,122.49 47.29,141.87l-85.35 37.6c-27.05,13.8 -48.42,27.86 -78.35,44.61l-154.8 91.13c-82.72,50.37 -96.54,27.47 -190.57,14.15 -65.4,-9.25 -156.96,-26.7 -228.67,-26.7 -1.15,51.86 -37.72,335.85 -58.95,366.67 -18.56,26.94 -57.25,47.04 -80.63,70.69 -49.26,49.81 -92.22,92.37 -141.8,141.96 -40.34,40.34 -105.49,123.02 -144.23,148.96 -119.11,-79.75 -175.9,-147.48 -325.53,52.81 -16.96,22.7 -28.33,34.17 -46.08,57.96 -71.79,96.22 -246.88,273.12 -108.11,387.86 27.18,22.48 54.84,40.9 82.48,59.41l-196.02 409.31c-53.02,123.4 -17.15,104 -138.18,164.48 -70.04,35.01 -138.85,62.77 -204.92,97.74 5.11,21.96 20.69,60.46 31.54,81.96 8.27,16.37 13.06,21.91 20.37,36.38l99.42 212.69c0,58.52 -26.64,130.99 -36.5,190.5 -37.83,228.39 -4.22,254.98 -85.44,255.06 -47,0.04 -70.23,-6.9 -105.78,7.71 -40.7,16.74 -93.86,79.93 -93.86,133.14l0 387.8c0,51.17 18.02,77.88 42.8,108.53 48.31,59.75 128.44,52.26 203.11,52.26 0,158.72 41,319.08 75.37,473.71 17.14,77.09 -26.15,127.75 -59.61,194.67 -23.73,47.46 -81.1,147.98 -91.43,192.31l284.26 141.36c46.59,23.68 42.96,36.74 63.02,88.32 55.8,143.55 124.17,266.69 191.84,394.56 -26.78,7.15 -55.85,34.36 -80.09,52.34 -141.84,105.17 30.5,292.95 97.54,384.21 55.02,74.91 116.28,197.16 228.46,197.16 83.08,0 99.57,-70.57 160.79,-75.66 12.51,46.86 147.31,170.95 182.07,205.72 61.15,61.15 128.65,141.28 205.71,182.07 0,134.72 47.3,239.03 47.3,368.87 139.69,0 242.04,-47.3 378.32,-47.3 3.05,0 322.17,187.74 368.87,198.62 -9.78,117.51 -148.81,214.87 171.44,329.85 201.29,72.27 403.74,207.85 471.72,-83.93 88.83,1.98 184.69,39.99 267.39,54.18l350.58 46.66c88.76,11.57 79.77,34.15 145.77,100.14 42.22,42.23 120.58,129.92 163.15,158.43 38.12,-10.18 123.56,-118.83 158.42,-153.69 175.26,-175.25 96.14,-73.18 482.41,-151.3 65.8,-13.31 205.28,-53.04 267.16,-54.42 67.74,290.75 263.01,161.67 464.89,86.56 329.17,-122.49 189.03,-203.24 178.28,-332.48 81,-18.87 247.22,-116.87 317.67,-164.69 110.5,-74.99 271.49,13.36 401.14,13.36 37.89,0 33.8,-70.75 39.48,-111.86 7.19,-52.02 22.62,-216.41 47.93,-254.74l241.27 -231.63c37.55,-37.55 119.49,-135.52 153.69,-158.42 186.5,162.1 248.44,36.39 364.81,-117.57 62.25,-82.34 237.79,-268.8 119.33,-376.04 -23.38,-21.17 -56.57,-46.87 -86.9,-54.97 4.61,-55.46 44.19,-95.69 66.07,-142.01 29.7,-62.87 136.59,-325.19 166.64,-344.12 59.03,-37.15 133.28,-65.89 196.1,-97.1l100.85 -50.48c-20.7,-88.87 -136.76,-236.09 -155.67,-316.68 -4.79,-20.4 1,-30.61 7.71,-57.71 38.2,-154.17 72.3,-325.98 72.3,-486.3 117.74,0 245.91,-9.24 245.91,-170.25l0 -359.41c0,-157.16 -119.54,-160.8 -245.91,-160.8 -15.39,-184.94 -56.1,-301.2 -70.43,-430.63 -8.2,-74.11 125.03,-254.49 146.09,-344.93 -66.07,-34.96 -134.87,-62.75 -204.92,-97.74 -34.56,-17.26 -72.65,-26.67 -92.03,-59.31 -27.89,-46.96 -117.9,-296.2 -189.41,-415.92 -15.81,-26.49 -45.61,-71.82 -52.76,-98.56 132.47,-88.71 186.99,-165.91 71.76,-317.67 -85.85,-113.06 -206.44,-316.03 -317.67,-316.03 -79.19,0 -101,59.7 -160.79,75.66 -32.23,-48.13 -157.22,-187.98 -202.61,-223l-106.96 -101.12c-16.66,-15.85 -31.72,-23.28 -42.19,-33.48 -34.89,-34.02 -38.62,-176.54 -47.06,-236.69 -6.07,-43.31 -17.34,-81.85 -17.34,-133.99 -115.05,0 -221.31,27.69 -328.78,41.5 -42.71,5.48 -44.57,-2.51 -83.34,-26.57 -75.13,-46.65 -247.07,-157.41 -325.63,-175.71 27.49,-118.03 138.56,-219.97 -157.26,-325.11 -99.6,-35.41 -206.3,-100.51 -315.66,-100.51 -128.54,0 -127.53,98.99 -170.25,179.71 -650.34,-151.51 -1144.15,-163.68 -1791.65,-22.98 -42.3,9.19 -71.09,22.12 -109.44,22.98 -8.61,-103.5 -74.28,-179.71 -179.71,-179.71 -53.51,0 -383.93,126.79 -427.35,159.06 -30.69,22.8 -73.93,74.38 -73.93,124.69z"/>
  </g>
 </g>
</svg>
