<?xml version="1.0" encoding="UTF-8"?>
<!DOCTYPE svg PUBLIC "-//W3C//DTD SVG 1.1//EN" "http://www.w3.org/Graphics/SVG/1.1/DTD/svg11.dtd">
<!-- Creator: CorelDRAW -->
<svg xmlns="http://www.w3.org/2000/svg" xml:space="preserve" width="8.5in" height="11in" version="1.1" style="shape-rendering:geometricPrecision; text-rendering:geometricPrecision; image-rendering:optimizeQuality; fill-rule:evenodd; clip-rule:evenodd"
viewBox="0 0 8500 11000"
 xmlns:xlink="http://www.w3.org/1999/xlink"
 xmlns:xodm="http://www.corel.com/coreldraw/odm/2003"
 data-name="Layer 1">
 <defs>
  <style type="text/css">
   <![CDATA[
    .fil0 {fill:#1A4B84;fill-rule:nonzero}
   ]]>
  </style>
 </defs>
 <g id="Layer_x0020_1">
  <metadata id="CorelCorpID_0Corel-Layer"/>
  <g>
   <path class="fil0" d="M4259.74 751.15c0,-4.9 0,-9.79 -0.1,-14.58 8.13,-27.5 -3.13,-56.25 2.92,-83.96 9.58,0 10.1,6.87 12.5,11.87 33.85,70.73 65.52,142.6 101.98,211.77 69.17,131.35 131.77,266.04 197.71,399.06 69.79,140.94 136.46,283.54 203.65,425.83 44.58,94.37 85.73,190.63 132.08,284.06 38.96,78.54 72.92,159.48 111.46,238.33 44.58,91.25 82.71,185.94 123.96,278.96 42.29,95.42 85.1,190.63 127.4,286.15 15.52,35.21 29.27,71.25 45.42,106.15 7.6,16.46 16.77,35.73 40.52,23.54 27.29,-13.96 56.25,-15.73 85.83,-14.9 30.83,0.83 39.58,-7.29 47.19,-38.23 22.08,-90.31 45.21,-180.21 66.77,-270.63 19.79,-83.02 49.48,-163.75 55.31,-250.1 0.52,-7.4 2.92,-14.79 5.52,-21.87 25.21,-68.75 80.42,-97.92 144.58,-108.23 87.71,-13.96 165,16.15 226.15,81.15 55.21,58.65 78.33,129.17 49.48,211.04 -9.06,25.63 -30,41.56 -44.37,62.81 -54.79,81.67 -109.27,163.44 -162.29,246.25 -15.42,24.17 -36.67,45.1 -43.85,74.58 -1.04,0.83 -1.77,1.98 -2.19,3.33 -24.79,21.15 -39.27,50.42 -56.87,77.19 -23.02,34.79 -22.19,35.1 6.77,64.79 64.79,66.67 74.79,147.29 49.06,233.13 -7.5,25.21 -2.4,36.04 16.46,46.15 71.46,38.33 140.63,80.63 208.54,125.42 102.92,67.81 202.81,140.1 296.77,221.04 14.48,12.5 29.27,18.65 48.65,18.44 129.69,-1.15 259.37,-0.94 389.17,-1.77 15.73,0 24.37,5.83 21.56,21.98 -4.37,24.58 0.63,48.75 0.52,73.13 -0.42,110.63 0.42,221.25 0.21,331.77 0,18.02 5.73,31.98 16.77,45.73 26.15,32.19 51.46,65.1 75.94,98.65 22.81,31.35 43.85,63.96 71.04,91.56 0.21,1.25 0.83,2.19 1.77,3.02 20.1,46.04 51.35,85 77.08,127.4 38.75,64.06 78.13,127.6 111.35,195.1 7.5,15.21 12.19,39.69 38.13,35.21 12.71,-2.19 25.63,-5.21 37.71,-10 53.44,-21.04 103.65,-7.81 152.81,14.69 27.29,12.5 48.02,34.17 67.5,57.08 9.79,11.56 22.6,21.25 35.73,9.48 12.71,-11.35 27.71,-17.71 41.46,-26.25 68.65,-42.92 138.54,-83.96 207.19,-126.87 66.67,-41.67 135.83,-79.06 197.71,-128.75 24.06,-19.37 51.56,-31.04 83.02,-32.29 97.6,-3.85 180.42,76.56 209.79,160.52 16.46,46.98 10.21,95.31 9.9,143.02 -0.52,89.9 -78.02,159.48 -151.77,155.83 -13.02,-0.63 -25.94,0.52 -38.85,3.23 -91.77,18.75 -183.75,36.87 -275.63,55.31 -61.56,12.29 -123.02,24.79 -184.48,37.29 -16.98,3.44 -29.37,11.77 -28.13,31.87 6.46,100.73 -32.08,175.63 -121.25,218.54 -24.17,11.67 -26.04,25.83 -19.48,47.92 29.27,98.23 54.58,197.5 73.65,298.33 20.21,106.56 40.73,213.23 46.98,321.98 1.25,21.67 11.67,37.6 26.15,52.4 91.35,93.44 181.98,187.71 273.75,280.83 14.06,14.27 11.04,22.29 -1.04,34.9 -91.67,94.79 -182.81,190.1 -274.17,285.21 -12.4,12.92 -20.31,27.29 -21.15,46.56 -1.46,31.04 -4.06,62.19 -8.44,93.02 -9.48,65.83 -20.63,131.35 -30.73,197.08 -11.56,75.83 -30.83,149.79 -48.23,224.27 -11.56,49.79 -27.5,98.65 -41.98,147.71 -5.42,18.23 -1.87,29.69 16.67,37.81 21.56,9.48 43.33,19.9 61.46,35.73 54.9,47.92 79.69,110 76.35,183.44 -1.15,23.54 5.42,36.77 28.44,41.15 49.58,9.27 98.02,23.96 146.87,36.56 66.25,17.19 132.81,32.71 199.48,48.44 49.9,11.77 98.23,32.4 150,33.33 37.71,0.73 68.13,14.9 93.85,41.46 56.04,58.02 61.98,132.19 48.75,205.31 -18.65,103.13 -75.31,175.42 -178.96,203.96 -43.02,11.87 -79.9,3.54 -113.44,-19.37 -34.48,-23.65 -66.87,-50.83 -101.46,-74.48 -112.08,-76.35 -224.69,-151.98 -336.77,-228.33 -29.58,-20.1 -33.13,-19.9 -56.25,6.04 -34.17,38.33 -75,62.81 -126.67,68.23 -41.35,4.37 -80.94,2.29 -118.96,-16.15 -18.02,-8.75 -30.52,-4.37 -39.79,14.58 -11.77,23.96 -24.79,47.19 -37.81,70.42 -82.71,146.98 -173.13,288.65 -277.6,420.42 -13.44,16.98 -30.1,31.87 -29.79,58.54 1.46,134.27 0.83,268.54 2.29,402.81 0.21,22.29 -7.19,26.77 -26.87,26.67 -128.96,-0.63 -257.92,-0.21 -386.87,-0.21 -10.83,0 -21.15,1.15 -29.79,8.96 -89.9,80.83 -187.29,151.04 -285.94,219.69 -81.15,56.56 -166.04,106.25 -251.67,154.9 -37.5,21.25 -38.96,21.15 -26.04,63.96 1.67,5.63 4.27,10.83 6.15,16.46 13.13,40.52 12.29,81.67 -0.21,121.67 -13.13,42.19 -36.35,78.54 -70,106.87 -15,12.6 -18.54,24.06 -4.9,41.35 12.6,15.94 21.87,34.79 32.4,52.5 42.92,72.81 85.1,146.04 128.65,218.44 37.6,62.4 69.79,128.33 117.5,184.27 20.31,23.85 32.08,53.33 32.6,87.29 0.52,37.5 -9.58,70.52 -27.71,102.6 -45.63,80.52 -114.9,122.6 -202.29,133.85 -45.1,5.83 -87.08,-5.42 -128.85,-27.08 -47.81,-24.79 -77.19,-61.15 -82.4,-113.96 -3.33,-34.58 -8.13,-68.33 -15.21,-102.08 -18.23,-86.25 -37.81,-172.29 -52.81,-259.17 -10.1,-58.65 -30.42,-115.1 -33.13,-175.21 -1.04,-22.92 -13.54,-28.75 -37.6,-27.5 -79.37,4.06 -145.42,-23.13 -190.73,-93.65 -10.83,-16.77 -18.96,-35.31 -28.13,-53.23 -7.92,-15.63 -20.52,-24.37 -35.94,-15.73 -21.87,12.4 -46.35,15.52 -69.37,22.29 -82.6,24.27 -166.15,45.42 -250.73,60.94 -72.81,13.33 -145.52,29.69 -219.9,31.98 -46.67,1.46 -84.17,16.77 -114.27,56.15 -24.58,32.19 -54.48,60.31 -83.65,88.44 -55.42,53.44 -104.48,113.44 -159.9,167.08 -16.25,15.73 -23.85,20.31 -40.42,2.71 -49.37,-52.6 -100.52,-103.44 -150.21,-155.73 -34.79,-36.56 -72.08,-70.63 -104.06,-110.1 -18.96,-23.44 -41.77,-36.46 -72.4,-41.04 -51.56,-7.6 -103.65,-9.79 -155.31,-18.23 -67.5,-11.04 -135.31,-21.87 -201.56,-37.92 -84.37,-20.52 -169.69,-38.65 -251.35,-70.21 -22.19,-8.65 -38.44,-0.94 -47.81,21.25 -40.52,96.56 -112.4,139.37 -212.92,134.17 -16.77,-0.83 -28.33,8.96 -32.19,25.42 -15.63,66.87 -30.21,134.06 -45.63,200.94 -13.23,57.19 -29.69,113.75 -40,171.46 -8.75,48.85 -32.81,95.42 -30,145.1 4.27,76.56 -71.46,145.21 -138.44,155.31 -63.02,9.48 -124.17,1.98 -181.56,-31.04 -60.31,-34.69 -100.21,-85.83 -116.98,-153.96 -8.54,-34.79 -8.85,-71.35 8.75,-106.04 21.04,-41.35 53.96,-73.33 77.81,-112.92 74.9,-124.27 154.37,-245.52 232.29,-367.92 9.79,-15.31 10,-28.02 -6.35,-38.23 -10.63,-6.67 -19.06,-15.94 -26.56,-25.83 -53.33,-70.1 -65.31,-146.77 -34.27,-230.31 7.92,-21.35 7.81,-37.81 -17.08,-48.75 -58.33,-25.63 -110,-64.17 -164.69,-96.67 -48.96,-29.06 -94.69,-64.58 -141.46,-97.6 -68.75,-48.75 -135.63,-99.48 -200.1,-153.96 -11.35,-9.58 -23.54,-13.44 -38.23,-13.44 -121.56,0.63 -243.23,0.73 -364.79,1.04 -7.29,0 -15,-0.42 -21.87,1.56 -22.5,6.77 -26.98,-4.48 -26.87,-24.79 0.42,-134.27 0,-268.54 0.1,-402.81 0,-12.19 -1.35,-23.85 -9.79,-32.92 -34.06,-37.08 -60.73,-80.1 -91.15,-120.1 -54.9,-72.19 -105.21,-147.92 -152.08,-225.63 -41.15,-68.33 -81.15,-137.81 -116.15,-209.9 -8.75,-17.92 -21.46,-23.65 -40.21,-13.54 -23.54,12.6 -49.48,17.19 -75.63,17.6 -63.75,1.15 -119.48,-18.85 -163.65,-68.75 -11.25,-12.71 -23.75,-28.33 -43.65,-15.83 -35.1,22.08 -69.48,45.42 -104.48,67.71 -58.96,37.71 -118.33,74.69 -177.08,112.71 -49.27,31.77 -103.44,58.13 -145,99.37 -80.21,79.69 -199.27,40.42 -254.9,-23.23 -32.71,-37.5 -55.1,-81.04 -67.19,-131.46 -18.33,-76.67 -4.06,-144.79 41.35,-206.04 16.67,-22.5 38.33,-38.96 68.65,-43.65 20.21,-3.13 41.35,1.25 60.1,-5.94 42.6,-16.56 88.23,-18.85 131.67,-32.4 39.48,-12.4 81.25,-16.77 121.56,-26.77 67.08,-16.56 134.58,-31.35 202.6,-43.23 43.54,-7.6 47.19,-11.56 45.83,-56.25 -1.98,-65.94 19.79,-121.98 65.83,-167.29 22.4,-22.08 51.15,-35.21 78.23,-49.9 12.81,-6.98 15.1,-16.98 10.73,-26.46 -8.13,-17.81 -9.79,-37.08 -16.04,-55.1 -22.08,-64.17 -34.06,-131.15 -50,-197.08 -12.29,-51.04 -19.27,-103.44 -28.23,-155.21 -12.92,-74.69 -22.92,-149.9 -30.83,-225.31 -1.46,-13.54 -5.83,-23.75 -15,-33.13 -36.56,-37.4 -72.71,-75.1 -109.06,-112.71 -57.6,-59.58 -115.1,-119.27 -172.92,-178.54 -10.31,-10.63 -18.96,-22.4 -4.79,-33.75 10.63,-8.54 17.6,-19.58 26.67,-28.96 85.1,-88.13 170,-176.46 255.1,-264.58 12.6,-13.13 18.85,-27.81 19.58,-46.87 2.19,-66.46 11.77,-132.29 21.87,-197.92 12.6,-82.29 28.65,-163.96 47.71,-245.1 15,-63.85 31.35,-127.29 49.79,-190 7.92,-26.87 2.6,-37.81 -19.37,-49.58 -34.69,-18.54 -67.4,-41.25 -89.27,-75.94 -27.19,-43.02 -42.19,-90.1 -37.08,-142.4 2.4,-24.69 -8.54,-36.67 -31.35,-42.71 -124.48,-33.33 -248.33,-69.06 -373.23,-100.73 -30.63,-7.71 -60,-23.75 -92.19,-23.13 -105.52,2.19 -160.52,-83.54 -168.33,-164.79 -11.67,-120 31.98,-216.35 137.92,-274.37 48.02,-26.35 98.54,-35.94 151.67,-6.46 26.77,14.79 44.9,38.23 68.23,55.94 41.77,31.67 87.5,56.87 128.96,89.48 85.1,66.87 179.27,120.73 263.23,189.58 11.35,9.37 19.79,7.19 30.31,-5.31 66.35,-78.96 148.44,-101.87 244.06,-67.81 23.13,8.23 34.69,1.04 44.69,-19.69 42.08,-87.08 93.44,-168.65 143.65,-250.73 56.56,-92.29 121.35,-178.54 187.6,-263.44 11.67,-15 16.04,-30 15.94,-48.54 -0.63,-125 -0.63,-250 -0.94,-375 0,-44.27 0,-43.85 42.08,-43.85 123.96,-0.21 247.92,-0.52 371.87,-1.35 11.15,0 22.5,-1.98 31.87,-10.52 73.75,-66.56 152.71,-126.04 233.33,-183.13 96.04,-67.81 194.06,-132.19 298.02,-186.35 32.92,-17.08 38.75,-27.92 25.31,-59.17 -31.04,-72.4 -5.21,-186.25 59.27,-239.06 18.54,-15.21 21.35,-28.85 8.13,-51.35 -52.29,-89.27 -101.67,-180.31 -153.44,-269.9 -32.6,-56.35 -55.63,-119.79 -98.75,-168.13 -68.44,-76.67 -41.77,-176.98 4.17,-235.31 38.96,-49.48 89.06,-80.73 148.96,-93.54 68.96,-14.79 135,-6.35 192.6,39.06 29.79,23.54 52.81,53.65 54.27,94.69 1.04,29.58 4.48,58.23 10.1,87.29 21.35,108.65 39.9,217.81 59.58,326.87 8.02,44.69 15.94,89.48 24.48,134.06 3.33,17.4 14.48,26.87 31.87,23.65 26.67,-5 52.08,-0.1 76.67,9.06 20.31,7.6 32.6,-0.52 37.71,-19.37 12.29,-45.63 29.69,-89.17 44.9,-133.65 29.27,-85.73 58.96,-171.15 88.96,-256.56 26.87,-76.67 54.27,-153.23 81.35,-229.9 15.31,-43.33 28.65,-87.5 45.94,-129.9 30.31,-74.17 56.35,-150.1 84.58,-225.1 30.31,-80.42 59.27,-161.35 90.1,-241.46 21.25,-55.31 47.19,-108.85 66.67,-164.69 38.44,-110 85.42,-216.25 127.4,-324.79 52.08,-134.37 108.96,-266.77 163.96,-400 14.48,-35 29.58,-69.9 44.37,-104.69 8.33,26.15 0.52,50.21 -3.75,73.75 -19.69,111.04 -30.21,223.44 -45.63,335.1 -12.6,90.83 -22.19,182.08 -33.33,273.23 -11.87,96.87 -24.9,193.54 -35.52,290.52 -9.79,88.65 -17.29,177.6 -30.63,265.73 -7.29,48.33 -5.63,97.29 -13.33,145.83 -11.35,71.35 -12.08,144.48 -22.4,216.04 -18.23,126.77 -25.73,254.58 -39.69,381.67 -17.92,163.23 -27.4,327.4 -42.08,491.04 -4.27,46.98 0.31,94.48 -7.19,140.83 -12.92,79.27 -14.79,159.48 -20.63,239.17 -6.04,83.96 -16.15,167.81 -17.29,252.19 -0.42,31.98 -0.83,64.37 -5.21,95.94 -16.56,120.31 -16.87,241.98 -24.37,362.81 -9.17,148.02 -18.96,296.15 -24.27,444.48 -1.56,44.48 -1.87,89.17 -5.83,133.85 -4.9,55.31 -3.02,111.15 -5.52,166.77 -0.73,17.6 -4.27,26.67 -18.23,32.81 -18.75,8.23 -37.71,15.94 -56.46,24.17 -83.02,36.56 -165.94,73.54 -249.17,109.69 -69.69,30.31 -139.69,59.58 -209.48,89.69 -38.13,16.46 -75.83,33.75 -113.96,50.21 -38.85,16.77 -78.13,32.5 -116.87,49.37 -52.08,22.71 -103.75,46.35 -155.83,69.17 -52.29,22.81 -105.21,44.06 -156.87,68.33 -9.69,4.58 -31.04,9.37 -25.31,24.06 4.69,11.98 23.33,4.37 35.73,0.63 121.04,-36.56 242.81,-70.21 365.31,-101.15 90.94,-22.92 181.04,-48.96 272.08,-71.15 129.79,-31.56 260.21,-60.83 390.42,-91.15 30.42,-7.08 30.63,-6.98 29.69,26.67 -4.9,161.87 -11.87,323.75 -14.37,485.73 -3.44,223.65 -5.94,447.29 -9.58,670.94 -2.92,180.63 -1.25,361.46 -1.56,542.19 0,54.27 0,54.58 -52.08,53.54 -84.06,-1.56 -167.81,6.56 -251.77,8.33 -78.54,1.56 -155.83,14.69 -233.23,24.58 -87.71,11.15 -174.79,29.79 -261.15,51.35 -148.75,37.29 -295,81.98 -437.29,140.83 -114.17,47.19 -226.77,97.29 -333.96,159.9 -4.9,2.81 -9.79,7.71 -15.31,2.71 -4.37,-4.06 -0.63,-9.48 0.31,-14.27 8.33,-42.08 18.23,-83.85 24.79,-126.25 19.06,-121.35 43.85,-241.35 70,-361.25 11.87,-54.17 25,-108.13 33.33,-162.81 9.69,-63.96 24.27,-126.87 36.56,-190.21 16.98,-87.29 35.83,-174.17 53.96,-261.25 14.69,-70.63 31.04,-140.94 46.77,-211.35 11.87,-53.13 24.17,-106.46 36.87,-159.48 13.54,-56.35 23.96,-113.33 37.29,-169.69 21.56,-91.46 44.17,-182.6 66.67,-273.75 23.65,-96.35 47.19,-192.71 71.67,-288.75 24.27,-95.31 49.69,-190.31 74.58,-285.42 18.96,-72.4 37.4,-144.9 56.87,-217.08 22.81,-84.27 46.56,-168.23 70.1,-252.19 17.71,-63.02 35.63,-125.94 53.85,-188.75 14.17,-49.06 31.67,-97.4 42.6,-147.19 17.08,-77.92 45.73,-151.98 66.35,-228.75 20,-74.27 45.31,-147.08 68.65,-220.42 18.23,-57.29 31.25,-116.35 54.58,-171.98 3.02,-7.08 3.96,-15.1 -0.73,-21.87 -5.42,-7.81 -12.81,-4.79 -20,-2.4 -34.17,11.56 -64.37,31.87 -96.35,48.23 -143.44,73.23 -277.29,162.5 -406.15,260.1 -22.29,16.87 -42.6,34.69 -75.52,34.27 -178.65,-2.5 -357.4,-1.56 -536.15,-1.67 -32.71,0 -35.63,2.71 -34.79,35.94 1.35,53.13 1.56,106.25 3.23,159.48 3.65,112.19 2.92,224.58 5.52,336.77 1.25,53.54 -4.58,99.27 -40.31,146.04 -59.58,78.02 -107.5,165.63 -155.94,252.08 -71.56,127.71 -133.23,260.31 -187.08,396.87 -43.44,110.1 -80.21,222.81 -110.1,337.5 -27.4,104.9 -51.77,210.73 -67.19,318.44 -5.1,35.94 -5,72.5 -36.04,101.25 -56.98,52.92 -111.15,109.27 -164.9,165.83 -74.27,78.23 -147.81,157.19 -225.52,231.77 -13.96,13.44 -11.67,25.94 1.35,38.75 34.9,34.27 69.79,68.54 104.06,103.54 96.04,98.02 191.04,197.19 288.13,294.06 18.02,17.92 27.4,35.94 29.58,60.63 5.42,62.29 20.31,122.81 32.92,183.65 19.27,93.23 42.6,185.21 71.46,275.73 31.35,98.44 64.17,196.25 105.52,290.94 30,68.85 57.92,138.54 93.44,204.69 21.15,39.37 36.77,82.29 66.15,116.87 0.42,1.15 1.15,2.19 2.19,2.92 12.71,38.33 36.77,70.52 54.79,105.94 29.48,57.92 71.67,107.4 106.98,161.35 13.23,20.21 31.87,38.23 31.77,66.15 -0.73,192.6 -0.94,385.1 -1.46,577.6 0,36.46 2.6,39.69 37.19,39.37 168.02,-1.67 336.15,-3.44 504.17,-5.21 7.29,0 14.69,-0.83 21.87,-2.08 26.35,-4.79 49.27,1.15 70.94,18.23 94.27,74.58 194.17,140.42 296.77,201.56 76.04,45.31 155,85.73 234.58,124.27 135.1,65.42 275.42,116.04 417.92,160.83 69.37,21.77 139.9,38.23 210.31,54.79 57.81,13.65 115.63,28.75 175.42,31.46 20.94,0.94 36.35,12.08 50.52,27.19 127.19,135.73 259.06,266.77 383.85,404.9 13.13,14.48 24.58,16.98 38.85,1.15 25,-27.71 51.04,-54.37 76.67,-81.35 98.75,-104.27 197.4,-208.65 296.46,-312.6 17.6,-18.44 35,-38.54 63.44,-38.75 26.98,-0.21 53.02,-6.87 79.48,-11.35 81.25,-13.65 161.04,-34.27 240.63,-54.69 56.46,-14.48 111.77,-35.73 167.6,-53.75 67.71,-21.87 134.37,-46.56 199.69,-74.27 140.1,-59.48 275.83,-128.65 405.1,-210.42 35.94,-22.71 75.52,-40.21 101.98,-76.77 56.04,-77.71 108.23,-158.02 154.17,-242.5 45.1,-82.92 87.71,-167.29 123.13,-255.1 23.44,-58.13 43.85,-117.5 63.65,-176.98 19.27,-57.81 34.9,-116.98 54.27,-174.79 10.94,-32.92 4.27,-44.69 -29.37,-40.52 -31.56,3.85 -62.92,13.65 -94.27,13.13 -67.29,-0.94 -132.4,18.33 -199.37,18.96 -28.44,0.21 -56.67,5.94 -84.79,11.35 -18.75,3.54 -38.13,3.75 -57.19,5.52 49.48,-25.1 101.77,-37.19 153.02,-52.81 55.31,-16.87 110.31,-34.9 165.94,-50.73 55.31,-15.73 109.06,-37.29 164.17,-54.27 17.5,-5.42 26.98,-15.1 29.27,-32.5 1.67,-12.71 3.96,-24.79 10.31,-36.04 5.42,-9.58 4.9,-20 -0.42,-29.06 -6.04,-10.42 -15.73,-5.42 -24.37,-3.85 -84.17,14.79 -168.75,28.02 -252.6,44.69 -109.48,21.77 -219.17,41.98 -328.85,62.19 -81.67,15.1 -162.92,33.23 -244.27,49.79 -6.56,1.35 -14.06,4.69 -19.79,-6.98 14.48,-3.54 28.13,-5.21 40.52,-10.31 54.9,-22.6 112.81,-35.1 169.06,-53.54 58.13,-18.96 117.19,-35.1 175.63,-53.13 73.23,-22.5 146.35,-45.73 219.58,-68.44 93.54,-29.06 187.19,-57.81 280.63,-86.98 13.54,-4.27 26.35,-10.94 29.9,-26.98 3.23,-14.9 7.29,-29.06 13.96,-42.81 4.17,-8.75 5.31,-20.31 -1.67,-28.96 -7.71,-9.58 -16.67,-1.56 -24.9,0.31 -91.25,20.83 -182.4,42.29 -273.75,62.6 -104.17,23.23 -208.54,45 -312.71,68.33 -98.54,22.19 -196.87,45.73 -295.31,68.54 -122.29,28.33 -244.69,56.77 -367.08,84.79 -26.67,6.15 -53.75,10.52 -80.63,15.73 -0.31,-1.46 -0.52,-3.02 -0.83,-4.48 53.13,-19.06 106.35,-38.13 159.48,-57.19 3.13,-0.63 6.25,-1.25 9.48,-1.87 3.96,0.1 8.13,1.25 11.67,0.21 45.83,-13.65 91.77,-26.98 137.19,-41.87 42.92,-14.06 86.67,-25.52 128.23,-43.85 2.4,-0.42 4.9,-0.83 7.29,-1.35 35.1,-8.13 70.21,-16.04 102.71,-32.81 3.13,-0.63 6.25,-1.25 9.37,-1.77 15.63,0 29.58,-5.31 42.19,-14.69 2.5,-0.42 5,-0.73 7.4,-1.04 25.73,-2.29 50,-9.17 71.04,-25.63 3.96,-0.21 7.92,-0.42 11.87,-0.73 36.87,-5.83 73.13,-13.65 105.63,-34.06 4.06,-0.31 8.02,-0.63 12.08,-0.94 13.85,2.08 25.21,-2.81 34.9,-12.81 3.02,-0.83 6.15,-1.56 9.17,-2.4 39.37,-4.79 76.67,-18.65 113.75,-31.46 26.46,-9.06 55.94,-10.1 79.48,-28.23 2.5,-0.42 5,-0.73 7.5,-1.15 49.69,-10.1 98.02,-24.48 144.58,-45.1 2.4,0 4.79,-0.21 7.29,-0.21 46.67,-11.15 92.19,-25.94 136.98,-43.23 3.13,-0.63 6.15,-1.35 9.27,-1.98 10.1,2.08 17.6,-1.67 22.6,-10.94 1.56,0 3.02,-0.31 4.37,-1.04 14.27,0.83 20,-9.17 24.06,-20.83 4.69,-13.44 9.37,-26.98 13.23,-40.73 6.25,-21.98 -1.56,-31.04 -23.13,-25.83 -32.5,7.92 -65,15.21 -98.13,20.42 -29.48,4.58 -58.75,12.4 -88.13,18.54 -79.37,16.56 -158.23,35.73 -237.19,54.48 -59.27,14.06 -118.54,29.06 -178.13,41.15 -63.54,12.92 -127.08,26.56 -190.63,40.1 -95.94,20.52 -190.94,45.94 -286.56,67.71 -77.5,17.6 -155.52,32.5 -233.13,49.58 -57.81,12.71 -115.21,27.92 -173.02,40.52 -86.56,18.96 -173.02,38.33 -258.85,60.73 -12.71,3.33 -26.15,6.56 -40.31,-0.21 3.96,-7.29 10,-8.02 15.21,-9.58 87.29,-25.1 175.21,-48.02 261.67,-75.83 62.6,-20.21 125.21,-40.63 188.23,-59.37 78.85,-23.44 157.19,-48.96 235.73,-73.75 56.56,-17.81 113.23,-35.63 169.79,-53.54 33.33,-10.63 66.56,-21.98 100.1,-31.98 44.17,-13.13 88.96,-24.37 132.92,-38.13 37.29,-11.67 74.17,-25.83 111.56,-35.52 75.52,-19.37 148.44,-47.5 223.75,-67.71 56.46,-15.1 111.35,-36.25 167.5,-52.81 85.94,-25.42 171.98,-50 256.98,-78.65 18.02,-6.04 30.63,-15.94 35.42,-34.58 4.58,-18.13 13.33,-34.27 21.25,-50.83 5.63,-11.67 13.02,-24.69 4.79,-35.31 -7.6,-9.79 -21.56,-4.17 -32.29,-1.15 -54.06,15.1 -107.92,30.73 -161.77,46.25 -60.94,17.4 -121.98,34.17 -182.4,53.54 -60.52,19.37 -122.5,33.96 -183.75,51.04 -81.67,22.81 -163.23,45.94 -244.79,68.85 -61.98,17.4 -123.96,34.9 -186.04,52.19 -80.1,22.29 -160.31,44.58 -240.52,66.77 -83.23,22.92 -166.56,45.52 -249.69,68.75 -59.69,16.67 -118.75,36.35 -178.85,50.94 -83.13,20.1 -164.9,45.63 -247.5,67.6 -81.04,21.56 -161.04,47.81 -242.08,69.37 -100.83,26.77 -200.73,56.67 -301.15,84.9 -11.87,3.33 -24.9,9.69 -45.31,3.02 40.31,-13.85 74.17,-25.42 107.92,-36.98 67.92,-23.33 135.83,-46.87 203.96,-69.9 70.31,-23.75 140.83,-46.77 211.15,-70.63 97.81,-33.23 195.31,-67.5 293.44,-100 15.94,-5.31 30.94,-12.92 47.6,-16.77 36.56,-8.65 72.81,-19.58 107.92,-33.13 36.25,-13.96 71.98,-29.27 109.27,-40.1 46.15,-13.44 90.83,-31.46 136.87,-45.1 26.67,-7.92 53.54,-21.67 80.52,-30.31 54.17,-17.4 107.19,-37.81 161.25,-55.52 65.21,-21.25 130,-43.85 195,-65.94 68.85,-23.44 137.6,-47.08 206.46,-70.52 54.06,-18.33 107.19,-39.79 162.5,-54.48 9.06,-2.4 19.79,-3.54 23.96,-15 2.4,-0.52 4.9,-1.04 7.4,-1.56 31.77,0.31 58.13,-16.35 85.73,-29.06 2.4,-0.52 4.79,-0.94 7.29,-1.35 13.75,3.13 23.23,-4.58 31.98,-13.85 3.96,-0.42 7.92,-0.94 11.87,-1.35 14.06,3.96 23.33,-4.37 32.19,-13.65 2.4,-0.42 4.79,-0.73 7.19,-1.15 37.5,-2.19 71.04,-19.69 105.31,-32.5 21.35,-8.02 47.5,-6.04 63.75,-27.08 2.4,-0.42 4.79,-0.83 7.19,-1.25 9.17,6.25 17.4,-0.21 25.42,-2.92 40.94,-13.75 82.08,-27.19 122.4,-42.81 16.87,-6.56 38.23,-8.85 46.67,-29.06 12.81,-30.94 22.4,-63.02 40.31,-91.77 10,-16.15 1.77,-27.71 -17.19,-26.87 -10.52,0.42 -21.04,2.6 -31.25,5.31 -55.73,15.1 -111.35,30.42 -167.08,45.83 -55.52,15.42 -110.63,32.19 -166.04,47.71 -80.42,22.6 -160.52,47.08 -240.83,70.42 -62.4,18.23 -124.58,37.29 -186.77,56.46 -50.52,15.63 -100.83,32.08 -151.46,47.71 -56.77,17.5 -114.37,32.81 -170.52,52.19 -69.37,23.96 -140.42,42.4 -209.48,67.5 -72.08,26.25 -146.46,45.52 -218.85,70.83 -70.21,24.58 -141.25,45.94 -211.04,71.98 -67.08,25.1 -136.25,44.17 -204.06,67.19 -84.79,28.75 -169.17,59.17 -253.75,88.33 -49.17,16.98 -98.85,32.6 -147.92,49.79 -49.17,17.19 -97.29,38.02 -146.98,52.92 -68.65,20.42 -134.79,48.13 -202.4,71.46 -46.25,15.83 -91.67,33.96 -137.92,49.79 -65.42,22.4 -131.56,42.71 -196.77,65.83 -82.19,29.06 -163.54,60.94 -245.83,90 -86.25,30.42 -173.23,58.44 -259.58,88.65 -142.81,50 -287.5,91.04 -436.77,115.73 -76.77,12.71 -153.85,18.54 -231.04,19.79 -103.54,1.67 -205.94,-11.04 -307.08,-36.67 -99.79,-25.31 -192.6,-66.77 -282.4,-116.77 -63.85,-35.63 -123.02,-78.65 -177.6,-128.13 -39.79,-36.04 -78.54,-73.44 -114.69,-113.65 -3.54,-3.96 -10.1,-8.13 -5.73,-14.69 3.23,-4.9 9.17,0 13.75,-0.94l0.06 0c1.67,8.44 7.81,9.79 14.79,10.1l0 0c1.67,9.69 9.9,12.92 16.56,17.4 117.19,79.48 243.85,137.81 378.02,178.23 97.29,29.37 197.71,41.25 298.33,50 18.96,1.67 36.67,1.25 52.6,-13.44 95.21,-88.33 196.46,-168.75 301.04,-244.69 77.08,-55.94 155.94,-109.37 237.29,-158.44 62.5,-37.81 126.46,-73.13 190.31,-108.44 81.15,-45 164.79,-84.37 249.58,-120.83 87.71,-37.71 175.42,-76.15 266.77,-104.06 22.08,-6.77 31.25,-21.15 30.73,-44.9 -0.73,-35.42 0.31,-70.73 5.21,-105.94 9.17,-65.21 6.67,-131.35 12.19,-196.77 8.85,-105.83 14.27,-211.87 21.77,-317.71 6.56,-93.23 13.44,-186.56 17.81,-280 3.33,-71.56 16.04,-142.4 15.94,-214.17 0,-90.31 13.13,-179.79 18.23,-269.79 5.42,-97.4 9.79,-195.1 20.42,-292.29 6.98,-62.71 6.25,-126.15 11.25,-189.17 11.46,-145.31 19.58,-290.83 29.27,-436.25 5.52,-84.06 11.46,-168.13 17.19,-252.19 7.19,-105.94 14.48,-211.87 21.35,-317.81 5.73,-88.33 10.63,-176.67 16.56,-265 9.27,-137.81 18.33,-275.73 28.75,-413.54 6.25,-83.23 8.23,-166.87 15.73,-249.79 11.98,-132.6 16.46,-265.73 27.4,-398.44 6.46,-78.02 10.21,-156.35 15.52,-234.58 9.48,-138.65 20.31,-277.29 28.33,-416.04 5,-85.83 10.21,-171.56 17.71,-257.19 3.33,-38.23 5.94,-77.08 0.21,-115.63 -0.21,-1.87 -0.31,-3.75 -0.52,-5.63 0,0 0.94,-1.67 0.94,-1.67l-1.04 -1.67 0 -0.21c8.54,-2.81 6.67,-10.52 7.4,-16.87 16.35,-150.83 20.31,-302.71 33.85,-453.75 6.67,-73.75 8.13,-148.02 13.96,-222.08 12.4,-158.75 20.52,-317.92 30.73,-476.87 1.15,-18.23 -2.4,-38.23 7.19,-54.17 7.5,-12.4 24.27,-3.33 36.56,-8.85 20,-9.06 27.71,-1.67 25.52,21.46 -6.04,64.58 -8.54,129.58 -11.15,194.17 -6.56,164.27 -12.81,328.65 -19.69,492.92 -5,118.75 -10.63,237.5 -14.58,356.35 -6.46,191.35 -16.46,382.5 -24.79,573.75 -7.4,168.44 -13.44,337.08 -20.1,505.63 -6.15,155.94 -14.06,311.77 -18.85,467.6 -5,163.65 -15.31,326.87 -19.69,490.52 -3.96,149.27 -16.15,298.23 -19.27,447.4 -3.75,179.69 -17.5,358.85 -22.29,538.44 -4.27,157.71 -12.19,315.21 -18.85,472.81 -6.15,146.56 -13.65,293.13 -18.85,439.79 -2.71,75 -6.04,150 -9.37,224.9 -9.06,203.02 -17.08,406.15 -25,609.27 -1.87,48.13 0.52,96.46 -2.92,144.27 -10,138.85 -12.6,278.13 -18.54,417.08 -1.15,26.46 7.6,32.6 33.13,26.67 26.98,-6.25 53.75,-13.44 80.83,-18.75 100.94,-19.9 202.71,-30.63 305.31,-38.13 117.81,-8.65 234.79,-0.73 351.15,13.65 109.17,13.44 216.15,40.21 320.94,75.31 16.25,5.42 31.46,5.63 47.81,0.31 86.25,-27.81 172.71,-55.1 259.17,-82.29 85.63,-26.87 171.77,-52.08 256.87,-80.63 79.48,-26.67 159.79,-50.1 240,-74.27 56.98,-17.19 113.85,-34.58 170.83,-51.77 73.13,-22.19 146.15,-44.9 219.48,-66.25 77.19,-22.4 154.9,-43.02 232.19,-65.1 63.44,-18.13 126.46,-37.6 190,-55.52 79.9,-22.5 160.1,-43.65 240,-65.83 65.94,-18.33 131.67,-37.29 197.5,-55.94 6.15,-1.67 13.33,-5.21 17.92,1.77 3.75,5.63 -1.35,10.63 -3.85,16.04 -26.77,58.33 -53.33,116.77 -79.79,175.31 -22.71,50.21 -45.73,100.21 -67.81,150.63 -30.21,69.06 -60.21,138.23 -89.17,207.92 -22.19,53.44 -41.77,107.92 -63.85,161.35 -39.17,94.37 -72.81,191.15 -106.67,287.6 -50.21,142.92 -87.6,290.1 -129.48,435.73 -22.81,79.69 -43.75,160.21 -64.79,240.42 -18.96,71.98 -34.79,145.1 -57.71,215.73 -16.98,52.29 -34.17,104.79 -53.54,156.46 -28.44,75.63 -63.33,147.19 -108.44,213.44 -12.71,18.65 -28.23,34.69 -44.06,50.63 -7.29,7.4 -8.65,16.46 -5.21,25.63 3.54,9.27 12.4,6.25 19.37,6.35 48.85,1.15 97.81,2.5 146.67,2.92 91.46,0.83 182.81,0.94 274.17,1.46 38.75,0.21 42.08,-3.23 41.77,-43.02 -1.46,-163.75 -1.67,-327.5 -5.21,-491.25 -1.25,-58.96 9.37,-107.08 45.42,-157.81 110.63,-155.21 205.52,-321.15 281.87,-497.81 42.4,-98.02 84.69,-195.73 116.98,-298.23 26.35,-83.65 53.44,-166.77 73.75,-252.29 24.69,-103.96 49.48,-207.71 60.63,-314.37 1.46,-13.54 6.56,-25.42 16.56,-35.63 133.33,-135.21 266.46,-270.73 399.69,-406.15 11.56,-11.77 11.87,-23.23 -0.21,-34.69 -13.13,-12.6 -26.67,-24.79 -39.48,-37.71 -120.52,-122.19 -240.83,-244.48 -361.56,-366.46 -10.21,-10.31 -14.06,-22.81 -15.31,-36.15 -13.54,-137.08 -50.42,-269.06 -81.77,-402.19 -15.1,-64.17 -38.75,-126.25 -60,-188.75 -47.92,-141.35 -107.71,-277.6 -174.9,-410 -71.77,-141.35 -154.79,-275.94 -248.85,-402.81 -15.52,-20.94 -23.23,-41.98 -23.02,-69.27 1.15,-186.56 0.63,-373.23 0.63,-559.9 0,-25.94 -7.5,-33.65 -31.87,-32.5 -112.5,5.21 -225.1,2.29 -337.71,4.48 -43.23,0.83 -86.35,1.46 -129.58,2.6 -52.08,1.35 -102.92,9.9 -152.5,-30.52 -101.46,-82.81 -213.65,-150.52 -327.6,-213.96 -24.37,-13.65 -48.85,-27.08 -73.54,-40 -8.44,-4.37 -18.44,-11.67 -27.29,-4.17 -9.69,8.13 -2.5,19.17 0.94,28.02 4.79,12.4 12.08,23.75 17.19,36.04 20.42,49.37 40.21,99.06 60.63,148.54 37.08,89.48 75.21,178.44 111.77,268.23 33.02,81.04 64.58,162.81 96.77,244.27 31.98,80.83 64.17,161.56 96.04,242.4 22.19,56.04 44.17,112.19 66.04,168.33 35.21,90.73 70.63,181.25 105.1,272.29 34.69,91.56 68.13,183.65 102.4,275.31 23.75,63.65 48.13,126.98 71.77,190.63 15.1,40.73 28.96,82.08 44.27,122.81 17.29,46.04 36.46,91.25 53.13,137.5 18.13,50.1 33.54,101.15 51.46,151.35 30.94,86.56 63.65,172.6 94.27,259.27 22.5,63.96 41.67,129.17 64.9,192.81 6.77,18.65 1.98,20.42 -12.81,20.1 -74.27,-1.25 -148.13,5.1 -222.19,10.52 -50.42,3.65 -101.35,1.15 -151.46,6.87 -115.63,13.33 -231.77,21.67 -347.08,37.81 -87.92,12.29 -175.52,26.35 -262.6,43.02 -77.6,14.79 -154.9,31.15 -232.19,47.6 -72.5,15.52 -144.06,34.69 -216.04,52.29 -81.35,20 -162.29,42.5 -241.87,69.48 -54.9,18.65 -110.31,35.42 -165.42,53.02 -44.37,14.17 -87.4,32.92 -131.67,46.67 -61.46,19.06 -120.63,44.27 -179.9,68.33 -88.33,35.94 -176.56,72.92 -263.13,113.96 -64.17,30.42 -128.33,60.63 -192.4,91.25 -7.08,3.33 -13.23,14.58 -21.15,9.06 -9.58,-6.77 -3.23,-18.54 -2.29,-28.13 3.44,-34.17 6.98,-68.23 5.73,-102.6 0.42,-4.69 0.83,-9.48 1.25,-14.17 11.04,-46.98 18.44,-94.27 13.65,-142.81 0.21,-3.02 0.52,-6.15 0.73,-9.27 9.79,-11.25 6.67,-23.85 3.75,-36.46 0.31,-3.02 0.52,-6.15 0.83,-9.17 9.9,-26.46 14.58,-53.65 9.06,-81.98 0.42,-9.79 0.73,-19.58 1.04,-29.48 10,-9.37 6.46,-20.42 3.44,-31.46 0.42,-6.46 0.83,-12.92 1.15,-19.27 8.75,-4.27 6.15,-13.02 6.98,-20 6.67,-56.04 10.1,-112.4 16.25,-168.44 13.44,-122.19 21.04,-245 32.71,-367.4 9.58,-99.79 16.56,-199.79 23.23,-299.79 3.33,-49.37 12.4,-98.54 8.85,-148.33 0.21,-4.79 0.42,-9.58 0.52,-14.37 10.31,-41.98 11.35,-84.69 8.85,-127.6 0.42,-8.13 0.73,-16.25 1.15,-24.37 8.96,-11.25 6.46,-23.75 3.85,-36.35 0.31,-3.13 0.63,-6.25 0.94,-9.27 11.25,-11.87 6.46,-27.08 6.56,-40.52 0,-21.67 8.54,-33.65 29.37,-35.31 36.77,-2.92 71.35,-16.35 106.87,-24.69 71.25,-16.67 141.98,-36.15 212.92,-54.58 80.31,-20.94 160.52,-42.4 241.15,-62.08 95.83,-23.44 190.21,-53.33 286.25,-75.63 92.92,-21.56 184.48,-48.54 277.19,-70.63 90.31,-21.56 180,-46.04 269.9,-69.48 62.29,-16.25 124.37,-33.02 186.67,-49.37 10.83,-2.81 18.65,-8.13 22.6,-22.81 -44.58,3.85 -86.25,6.98 -128.13,13.44 -95.73,14.79 -192.08,24.69 -288.23,36.25 -19.37,2.29 -39.37,0.73 -58.44,4.48 -91.98,17.92 -185.1,27.08 -277.92,38.75 -54.06,6.87 -108.02,14.69 -161.98,21.87 -89.48,11.87 -178.54,27.08 -268.02,38.54 -49.17,6.25 -97.81,16.25 -147.19,21.87 -89.58,10.21 -178.65,26.56 -267.81,40.52 -14.06,2.19 -16.56,-4.27 -15.63,-17.29 4.79,-68.02 7.5,-136.25 13.75,-204.17 5.31,-58.02 4.79,-116.15 9.06,-174.27 4.17,-56.77 11.35,-114.06 5.42,-171.35 0.21,-3.13 0.42,-6.25 0.63,-9.48 5,-3.13 4.27,-8.54 4.79,-13.44 14.37,-136.67 15.52,-274.27 22.5,-411.25 10.1,-196.87 19.06,-394.06 26.04,-591.25 5.42,-150.83 7.81,-301.77 14.58,-452.6 4.69,-104.48 4.69,-209.17 6.46,-313.75 0.1,-8.96 3.33,-18.65 -3.23,-26.87 0,-3.23 0,-6.46 0,-9.79 4.17,-3.85 3.44,-9.17 3.65,-14.06 2.71,-105.42 5.83,-210.73 8.13,-316.04 2.5,-113.02 3.65,-226.04 4.37,-339.06 2.29,-348.54 0.94,-697.08 0.83,-1045.63 0,-7.81 3.44,-17.19 -5,-23.33l-0.44 0.54zm635.94 2351.87c-0.63,-3.23 0,-7.6 -1.98,-9.37 -76.46,-74.17 -182.6,-51.35 -229.17,31.87 -2.81,5 -3.44,12.29 -10.21,12.29 -5.42,0 -7.08,-6.04 -8.85,-10.83 -7.29,-19.27 -23.44,-19.58 -38.75,-16.87 -15.1,2.71 -29.48,9.37 -44.48,13.13 -19.79,4.9 -28.13,19.17 -29.17,38.13 -1.87,37.81 -11.56,74.79 -10.94,112.92 0.1,7.92 3.02,18.65 -7.08,21.87 -9.69,3.02 -12.4,-8.02 -18.23,-13.33 -21.56,-19.69 -33.13,-49.9 -61.04,-62.81 -0.63,-1.15 -1.46,-2.08 -2.6,-2.71 -1.56,-1.87 -3.02,-3.65 -4.58,-5.52 -3.75,-4.48 -7.5,-9.06 -11.25,-13.54 -0.94,-9.9 -4.9,-16.04 -15.73,-13.96 -4.48,0.21 -8.85,0.52 -13.33,0.73 -15.73,0.21 -30.31,3.96 -42.71,14.79 -1.46,0.21 -2.81,0.83 -3.96,1.77 -12.81,1.04 -24.58,3.33 -26.35,20.1 -1.87,17.5 4.37,30 20.94,35 14.48,4.37 20.1,14.48 24.06,28.65 14.06,50.21 28.96,100.1 44.48,149.79 4.37,14.06 6.77,25.63 -6.25,36.04 -11.35,9.06 -11.77,21.87 -7.19,34.48 4.9,13.65 17.71,20.31 29.37,18.54 35.42,-5.42 69.69,-16.35 101.15,-34.37 11.56,-6.67 18.75,-19.37 12.19,-34.69 -6.56,-15.42 -18.85,-26.87 -34.48,-21.46 -26.98,9.37 -31.98,-5.42 -37.19,-26.87 -4.79,-20.31 -10.1,-40.73 -19.37,-59.9 -3.75,-7.71 -9.17,-16.35 -3.96,-26.15 10.63,-1.35 13.65,7.92 18.75,13.85 16.77,19.58 33.23,39.37 49.69,59.27 8.96,10.83 18.96,19.79 33.65,13.23 14.69,-6.56 30.21,-11.35 32.81,-32.92 2.92,-24.27 7.08,-48.23 8.33,-72.71 0.31,-6.98 -2.08,-17.5 8.33,-17.92 9.37,-0.42 10.63,10.1 11.67,16.87 3.33,23.65 12.5,45.31 19.58,67.71 5,16.04 1.87,25.1 -13.96,31.35 -16.77,6.56 -31.87,16.87 -23.65,39.58 8.02,22.29 25.42,27.4 45.83,21.46 25.83,-7.6 51.46,-16.25 76.77,-25.63 12.71,-4.69 23.65,-13.33 21.98,-29.58 -2.4,-22.6 5.94,-20.73 22.08,-13.65 103.44,45.73 191.56,-33.44 206.46,-133.13 7.5,-50.21 -11.56,-96.25 -38.96,-137.71 -5.21,-8.02 -10.1,-17.92 -22.08,-17.29l-0.42 -0.42 -0.21 -0.1zm-2256.15 4733.44c29.06,-13.85 60.73,-12.5 91.04,-18.65 115.1,-23.44 227.92,-55.31 339.9,-91.67 142.19,-46.35 282.4,-98.54 423.02,-149.58 158.96,-57.71 318.54,-113.96 477.81,-170.63 84.69,-30.1 170.42,-57.29 254.9,-87.81 68.33,-24.69 137.4,-47.29 205.83,-71.56 101.56,-35.94 204.58,-67.5 306.98,-101.04 6.15,-1.98 13.85,-3.13 13.54,-11.87 -0.31,-8.75 -7.6,-9.48 -14.17,-10.52 -90,-15.52 -180,-30.63 -271.35,-34.58 -181.15,-7.92 -359.69,9.37 -535.1,58.13 -16.56,4.58 -27.4,11.98 -34.37,28.13 -27.29,62.92 -57.19,124.79 -81.35,189.17 -3.13,8.33 -7.29,15.52 -16.67,16.46 -8.96,0.83 -12.19,-6.46 -16.35,-12.81 -26.35,-40.52 -53.44,-80.63 -79.27,-121.56 -9.69,-15.42 -20.1,-19.69 -36.87,-12.6 -22.5,9.58 -45.42,18.44 -68.75,25.83 -108.44,34.79 -212.29,81.67 -314.79,131.25 -230.63,111.56 -443.33,253.33 -642.29,417.29 -3.85,3.13 -7.4,6.67 -10.63,10.42 -3.54,3.96 -5.63,9.17 -1.87,13.54 2.29,2.71 6.98,3.23 10.94,4.9l-0.11 -0.22zm1794.69 -3609.58c-32.71,1.46 -69.17,22.92 -95.21,61.98 -11.87,17.81 -22.92,37.4 -19.58,61.04 2.71,18.44 11.46,33.44 30.73,33.23 18.44,-0.21 25.52,-15.31 27.71,-32.92 4.58,-37.08 21.98,-55.94 58.13,-63.75 43.13,-9.37 72.29,24.06 58.33,67.19 -3.33,10.31 -7.81,20.42 -13.13,29.9 -31.67,56.04 -63.13,112.29 -95.94,167.6 -14.48,24.48 1.04,42.6 10.63,60.42 8.54,15.94 23.02,4.27 34.9,0 58.44,-21.04 116.67,-42.92 175.42,-62.81 19.48,-6.56 28.65,-14.48 18.44,-35.94 -11.98,-25.1 -27.6,-33.85 -45.42,-21.35 -25.52,18.02 -55.42,23.75 -83.02,35.73 -7.29,3.13 -16.56,7.92 -22.5,-0.63 -5.73,-8.23 1.56,-15.52 5.83,-22.6 24.48,-40.83 48.33,-82.08 66.35,-126.46 30.63,-75.42 -18.65,-150.94 -111.67,-150.52l-0.01 -0.11zm150.31 -437.29c-2.19,-26.87 -11.04,-50.1 -28.44,-69.17 -33.33,-36.46 -75,-43.75 -119.17,-29.58 -45.31,14.58 -77.92,44.69 -87.81,95.83 -4.79,25 2.92,46.04 20.1,50.63 17.71,4.79 28.44,-6.15 34.48,-35.52 7.29,-35.63 33.75,-58.65 69.17,-60.1 40.1,-1.56 64.06,35.73 46.77,73.13 -6.04,12.92 -11.87,26.04 -19.17,38.13 -30.42,50.83 -61.25,101.46 -92.29,151.87 -9.9,15.94 -8.02,45.52 5.73,63.23 11.98,15.52 25,4.79 37.71,0.52 58.13,-19.17 116.25,-38.65 174.48,-57.4 22.71,-7.29 27.92,-15.52 20.31,-35.94 -8.54,-22.92 -26.87,-34.37 -42.81,-23.33 -27.19,18.85 -60.21,20.52 -88.33,36.15 -6.56,3.65 -14.79,5.42 -20.21,-1.87 -5.52,-7.4 -0.63,-14.69 3.85,-20.63 20.83,-27.19 35.42,-58.44 52.08,-88.23 15.42,-27.5 31.56,-55.31 33.33,-87.81l0.2 0.1zm291.87 560c-7.5,-50.83 -23.44,-113.44 -62.4,-166.25 -19.27,-26.04 -44.48,-48.13 -78.02,-52.4 -66.87,-8.33 -120.63,40.1 -121.98,112.81 -1.35,73.75 21.87,141.15 66.35,198.54 19.48,25.21 44.06,47.92 79.27,49.48 69.79,3.13 116.15,-47.5 116.87,-142.19l-0.1 0zm22.61 -512.08c0.83,-63.13 -15.94,-112.6 -38.23,-159.48 -16.04,-33.85 -43.75,-58.54 -75.94,-76.77 -19.06,-10.73 -39.48,-11.56 -59.27,-4.48 -43.44,15.73 -70.52,46.87 -79.48,94.27 -12.92,68.13 14.17,127.5 38.96,186.87 10.52,25.21 30.1,43.85 51.25,60.21 29.17,22.5 60.73,26.87 94.58,12.4 53.13,-22.71 69.37,-67.29 68.13,-113.02l0 0zm330.21 -667.19c-2.71,-45 -14.79,-83.33 -35,-116.67 -31.67,-52.4 -75.73,-90.52 -140.52,-81.15 -50.73,7.4 -98.33,28.85 -146.98,45.52 -12.19,4.17 -19.79,16.15 -18.33,30 1.56,13.96 8.23,25.83 23.75,28.02 13.96,1.98 20.94,10.42 24.9,23.96 15.42,52.29 31.46,104.37 47.08,156.67 2.71,8.85 4.69,18.33 -2.81,26.15 -12.29,12.81 -21.56,26.98 -9.9,44.58 11.98,17.92 30.63,14.79 46.77,9.48 43.33,-14.37 88.54,-23.75 129.27,-44.79 49.58,-25.63 74.58,-70.1 81.56,-121.77l0.2 0zm-2474.9 5093.02c8.96,0 17.92,0.31 26.87,0 16.77,-0.63 26.15,6.77 32.71,23.65 38.23,98.44 77.71,196.35 116.77,294.48 2.6,6.67 5.73,12.6 13.54,12.4 8.54,-0.21 12.81,-6.25 15.42,-13.85 33.02,-96.87 76.87,-189.17 111.56,-285.21 9.58,-26.46 23.02,-41.46 52.4,-35.63 11.04,2.19 22.81,0.63 34.17,0.63 20.94,0 26.67,8.02 18.65,27.71 -19.37,48.13 -39.27,96.15 -58.96,144.17 -36.98,90.73 -74.06,181.46 -110.94,272.19 -13.23,32.5 -26.46,65 -39.37,97.71 -7.6,19.37 -15.63,20.42 -32.29,7.19 -32.08,-25.63 -41.56,-63.75 -55.94,-99.06 -43.75,-106.77 -86.46,-214.06 -129.37,-321.25 -14.27,-35.73 -24.9,-73.13 -43.23,-107.08 -6.77,-12.6 0.42,-17.08 11.35,-17.5 12.19,-0.52 24.48,-0.1 36.67,-0.1l0 -0.21 -0.01 -0.21zm1772.71 40.21c20.83,30 38.75,59.9 39.37,99.9 0.63,42.6 -15.21,76.04 -39.69,107.4 -39.06,23.33 -38.85,23.23 -12.92,61.56 39.17,57.92 77.81,116.15 117.29,173.85 6.04,8.85 5.52,13.85 -1.25,21.56 -11.98,13.54 -27.81,23.85 -34.69,41.87 -11.87,6.35 -20.21,5 -28.44,-8.02 -47.08,-74.58 -95.42,-148.33 -142.71,-222.71 -17.08,-26.98 -53.65,-38.13 -81.15,-23.02 -10.83,5.94 -9.69,16.67 -9.69,26.67 0,58.13 -0.31,116.35 0.83,174.48 0.42,19.69 -5,26.67 -24.9,26.25 -58.13,-1.25 -58.44,-0.52 -58.54,-59.69 -0.21,-140.83 0.31,-281.67 -0.52,-422.4 -0.1,-23.44 5.42,-33.13 30.21,-31.56 38.96,2.4 78.33,2.4 117.29,0 47.08,-2.81 90.63,4.37 129.37,33.85l0.11 -0zm-185.94 106.15c0.42,69.58 0.52,67.29 64.58,69.06 36.87,1.04 71.56,-32.29 72.19,-67.08 0.63,-36.56 -33.65,-68.54 -73.75,-68.33 -70.94,0.42 -63.54,-9.27 -63.02,66.35l0 0zm-1128.85 114.17c0,-76.77 0.1,-153.54 -0.1,-230.31 0,-13.75 0.42,-27.71 17.92,-25.94 66.04,6.67 131.77,-1.46 197.71,-1.25 25.21,0 50.52,-0.42 75.83,-1.04 16.98,-0.52 20.1,7.5 13.65,22.08 -4.69,10.73 -10.63,20.94 -14.17,31.98 -5.52,16.98 -15.42,23.44 -32.92,23.02 -46.46,-1.15 -92.92,-1.25 -139.37,-0.83 -25.73,0.21 -38.75,18.23 -32.92,43.65 3.85,16.56 14.17,23.02 30.42,22.81 45.63,-0.63 91.35,0.42 136.98,-1.25 19.27,-0.73 26.87,5.1 25.94,25.42 -2.19,45.94 8.96,52.6 -47.08,49.79 -35,-1.77 -70,1.25 -105,-1.87 -26.15,-2.4 -36.87,10.21 -36.98,37.4 -0.21,52.19 0.31,104.37 -1.56,156.56 -0.94,25.1 9.17,33.44 31.56,32.6 50.42,-1.87 100.94,2.71 151.35,-2.81 10.94,-1.25 18.96,3.65 22.4,15.1 0.21,0.83 0.52,1.56 0.73,2.4 20.83,62.19 30.83,61.35 -38.44,60.52 -77.4,-0.94 -154.9,-0.42 -232.29,0.42 -18.44,0.21 -23.85,-7.29 -23.65,-25.63 0.73,-77.6 0.31,-155.21 0.31,-232.81l-0.01 0 -0.31 0zm694.58 -0.83c0,-75.94 0.42,-151.98 -0.31,-228.02 -0.21,-17.92 3.96,-25.73 22.92,-25.83 88.02,-0.52 176.15,-2.4 264.17,-3.75 22.29,-0.31 22.6,3.23 16.77,24.79 -11.67,42.6 -35.83,57.4 -78.33,51.98 -34.58,-4.37 -70.1,-1.15 -105.1,-1.04 -25.52,0.1 -35.63,11.25 -35.42,36.87 0.21,25.1 14.17,30.42 35.42,30 44.9,-1.04 89.79,0.21 134.58,-1.15 18.85,-0.52 24.37,7.08 23.44,25.21 -2.6,49.79 -2.29,50.21 -51.25,49.48 -32.6,-0.42 -65.1,1.56 -97.81,-2.08 -28.65,-3.13 -39.06,7.6 -39.37,37.29 -0.63,53.23 -0.31,106.46 -1.25,159.58 -0.42,21.98 9.27,30.42 29.58,30.21 47.29,-0.52 94.69,1.15 141.98,-1.25 22.08,-1.04 34.17,5.42 38.44,27.5 0.42,2.4 1.98,4.69 2.81,6.98 14.79,39.69 13.23,41.77 -27.5,41.67 -80.83,-0.21 -161.56,-0.94 -242.4,0.31 -23.02,0.31 -31.77,-5.63 -31.35,-30.94 1.46,-75.94 0.52,-151.98 0.52,-228.02l-0.31 0 -0.21 0.21zm-352.29 -1.87c0,-75.1 0.83,-150.21 -0.42,-225.42 -0.42,-25.83 6.46,-40.1 33.33,-40.1 8.65,0 17.81,-2.81 25.94,-6.35 20,-8.75 26.15,-1.67 26.04,19.48 -0.63,132.5 -0.52,265.1 -0.83,397.6 0,37.29 6.67,45.21 42.4,44.06 49.69,-1.56 99.37,3.33 149.06,-2.71 10.31,-1.25 18.44,4.37 23.65,14.58 28.85,57.19 27.81,59.06 -34.79,59.37 -79.9,0.31 -159.9,-0.21 -239.9,1.35 -18.75,0.42 -24.37,-5.31 -24.17,-23.75 0.52,-79.37 0.21,-158.75 0.21,-238.13l-0.42 0 -0.1 0zm1457.5 58.33c0,69.17 -0.21,138.33 0.21,207.5 0,12.5 -4.27,17.19 -15.83,15.52 -0.83,-0.1 -1.56,-0.52 -2.4,-0.63 -42.7,-7.22 -64.06,-33.4 -64.06,-78.54 0.1,-114.79 0.31,-229.48 0.42,-344.27 0,-34.06 -3.85,-38.33 -36.15,-38.23 -24.48,0 -48.96,-0.73 -73.33,0.83 -17.29,1.15 -25.63,-7.08 -30.31,-22.6 -14.58,-48.13 -11.25,-52.92 36.77,-53.02 111.67,-0.31 223.44,-0.31 335.1,-1.35 17.6,-0.21 22.71,6.67 17.29,22.5 -4.17,11.98 -7.71,23.65 -8.75,36.46 -1.04,13.02 -8.65,18.33 -21.77,17.92 -34.17,-1.04 -68.44,-0.63 -102.71,-1.87 -26.35,-0.94 -35.73,6.87 -35.94,34.69 -0.31,68.33 0,136.67 0,205l1.25 -0.01 0.21 0.11zm-309.06 203.54c-7.29,0 -14.69,-0.21 -21.98,0 -14.79,0.63 -19.9,-6.77 -19.9,-21.67 0,-157.81 -0.21,-315.73 -0.73,-473.54 0,-17.5 6.87,-26.46 23.23,-29.58 15.21,-2.81 30.31,-6.35 45.1,-10.94 16.98,-5.21 20.21,4.06 20.1,18.13 -0.94,161.04 -2.08,322.19 -2.92,483.23 -0.1,34.37 0.42,34.37 -33.23,33.85 -3.23,0 -6.56,0 -9.79,0l0 0.52 0.11 0zm-546.98 142.5c66.67,0.52 100.42,48.02 103.33,104.58 3.02,57.81 -45.83,104.58 -103.44,105 -51.87,0.31 -104.37,-51.56 -105.21,-103.85 -0.83,-53.85 51.35,-106.15 105.31,-105.73l0 0zm0.94 33.23c-37.4,-0.31 -68.85,33.02 -68.65,73.02 0.1,36.67 31.56,69.06 67.08,69.17 37.71,0.1 69.48,-31.15 70.21,-68.85 0.63,-39.06 -31.04,-73.02 -68.65,-73.33l0 0zm-284.17 76.04c-2.71,-28.33 3.23,-59.48 -1.46,-90.63 -2.19,-14.27 6.77,-23.75 18.54,-25 16.46,-1.77 13.44,12.92 13.33,23.44 -0.63,37.81 3.23,42.19 39.58,42.29 5.73,0 11.35,0 17.08,0 42.19,0 44.58,-2.5 44.9,-45 0,-9.06 -1.87,-20.73 11.04,-21.15 11.25,-0.31 17.19,8.54 18.96,19.48 0.83,4.9 0.73,10.1 0.21,15.1 -5.1,51.67 -2.92,103.33 -0.31,155 0.63,13.13 2.08,28.13 -15.42,28.13 -17.08,0 -15.94,-13.75 -15.1,-27.71 1.46,-23.54 0.63,-47.19 0.63,-70.73 0,-18.23 -7.5,-28.23 -26.46,-28.02 -85,1.04 -76.15,-10.73 -75.94,74.9 0,10.1 0.31,20.21 0.63,30.31 0.42,11.25 -1.87,21.25 -14.79,21.35 -12.5,0 -15.83,-8.96 -15.63,-20.73 0.42,-26.15 0.1,-52.29 0.1,-81.15l0.09 0.1zm510.31 72.81c13.23,1.35 25.42,-5.73 37.6,-12.6 10.94,-6.25 21.56,-5.73 26.87,6.67 5.31,12.5 -6.56,15 -14.17,19.06 -65.42,34.9 -145,3.13 -155.94,-88.33 -4.48,-37.29 24.17,-80.94 63.85,-98.96 35.52,-16.15 70,-10.31 101.87,12.08 4.27,3.02 7.5,6.87 5.63,12.71 -1.98,6.25 -6.67,9.37 -12.71,10.52 -7.92,1.46 -13.96,-3.02 -20.42,-6.56 -30.1,-16.87 -56.46,-13.54 -83.02,10.21 -24.79,22.19 -31.35,52.19 -18.96,86.67 10.52,29.27 37.5,48.54 69.37,48.54l0 0zm-605.94 25.42c-49.79,-0.21 -85,-26.15 -100.1,-71.04 -12.6,-37.29 1.25,-86.98 31.25,-112.6 31.77,-27.19 83.13,-31.56 116.46,-10.21 8.33,5.31 20,9.69 13.85,22.29 -6.98,14.17 -18.23,6.25 -27.5,1.56 -46.35,-22.71 -84.58,-7.5 -105.94,39.48 -14.9,32.6 -3.33,57.08 16.87,80.1 21.87,24.9 49.17,31.46 77.6,19.9 6.04,-2.4 11.46,-6.35 17.29,-9.17 8.33,-3.96 16.35,-3.54 21.04,5.73 4.9,9.69 -0.21,15.42 -8.23,20.31 -17.5,10.52 -36.15,15 -52.4,13.65l-0.21 0zm1613.85 -348.33c-140.52,1.77 -250.21,-112.6 -250.42,-260.21 -0.1,-143.02 113.33,-260.42 256.77,-259.9 135.42,0.52 248.54,135 246.98,263.13 -1.56,128.33 -109.9,262.92 -253.33,256.98l0 0zm-160.31 -260.73c-6.77,87.92 70.94,173.75 161.46,172.6 82.19,-0.94 161.87,-69.37 163.54,-169.79 1.56,-97.6 -86.04,-167.81 -159.37,-170.52 -92.19,-3.33 -173.65,90 -165.63,167.71l0 0zm-658.23 609.27c-56.87,-0.42 -100.63,-45.94 -100.94,-103.65 -0.31,-50.1 46.56,-103.54 102.4,-103.23 62.19,0.31 103.33,53.85 102.81,104.37 -0.63,59.06 -44.79,102.92 -104.17,102.5l-0.11 0zm0.83 -32.19c36.67,0 71.15,-32.81 71.77,-68.02 0.63,-38.44 -33.75,-75.31 -70.73,-75.94 -34.9,-0.52 -68.54,36.46 -68.02,74.9 0.52,37.5 31.15,69.06 66.98,69.06l-0 -0zm326.15 -5862.71c-0.21,22.19 -4.58,42.92 -16.56,62.29 -25.94,41.98 -67.29,55.94 -111.87,36.15 -63.75,-28.33 -91.46,-116.67 -57.19,-177.19 43.02,-75.94 124.48,-58.23 165.42,4.58 14.48,22.19 20.73,47.4 20.21,74.17l0 0zm-234.89 1023.44c2.92,-16.04 3.75,-27.08 6.87,-37.4 12.19,-38.96 53.85,-53.96 81.87,-26.04 51.25,51.35 71.67,116.56 66.15,189.79 -1.77,22.81 -16.77,38.75 -37.29,45.83 -20.31,7.08 -38.13,-0.94 -53.13,-16.46 -42.92,-44.48 -48.44,-104.37 -64.48,-155.73l0 0zm184.06 -440.21c0.83,24.27 -3.96,39.69 -11.35,53.75 -14.48,27.71 -45.73,35 -71.25,17.81 -19.79,-13.33 -34.17,-31.98 -42.08,-54.58 -11.04,-31.67 -21.98,-63.44 -27.29,-96.98 -3.23,-19.79 -0.63,-38.96 6.25,-57.19 13.54,-35.52 52.29,-44.79 80.31,-19.79 17.6,15.63 31.15,34.17 38.85,57.29 11.67,35.1 22.08,70.52 26.46,99.79l0.11 -0.1zm318.44 -654.58c0,38.75 -21.35,62.29 -53.54,76.56 -64.17,28.44 -66.35,26.87 -86.46,-41.15 -12.08,-41.04 -24.58,-81.87 -38.02,-122.4 -5.83,-17.81 -0.1,-27.6 15.83,-32.81 15.52,-5 31.04,-10.52 46.87,-13.96 35.1,-7.71 70.83,10.83 91.87,47.19 15.31,26.46 24.17,55.1 23.44,86.56l0 -0zm0 0l0 0 0 0z"/>
  </g>
 </g>
</svg>
